<svg width="24" height="24" viewBox="0 0 24 24" fill="none" xmlns="http://www.w3.org/2000/svg">
<g clip-path="url(#clip0_2053_25244)">
<path d="M9.7019 8.64124C9.409 8.34835 8.93413 8.34835 8.64124 8.64124C8.34834 8.93414 8.34834 9.40901 8.64124 9.7019L10.9393 12L8.64124 14.2981C8.34834 14.591 8.34834 15.0659 8.64124 15.3588C8.93413 15.6517 9.409 15.6517 9.7019 15.3588L12 13.0607L14.2981 15.3588C14.591 15.6517 15.0659 15.6517 15.3588 15.3588C15.6516 15.0659 15.6516 14.591 15.3588 14.2981L13.0607 12L15.3588 9.7019C15.6516 9.40901 15.6516 8.93414 15.3588 8.64124C15.0659 8.34835 14.591 8.34835 14.2981 8.64124L12 10.9393L9.7019 8.64124Z" fill="#1AA5BB"/>
<path fill-rule="evenodd" clip-rule="evenodd" d="M22 12C22 17.5228 17.5228 22 12 22C6.47715 22 2 17.5228 2 12C2 6.47715 6.47715 2 12 2C17.5228 2 22 6.47715 22 12ZM20.5 12C20.5 16.6944 16.6944 20.5 12 20.5C7.30558 20.5 3.5 16.6944 3.5 12C3.5 7.30558 7.30558 3.5 12 3.5C16.6944 3.5 20.5 7.30558 20.5 12Z" fill="#1AA5BB"/>
</g>
<defs>
<clipPath id="clip0_2053_25244">
<rect width="24" height="24" rx="12" fill="white"/>
</clipPath>
</defs>
</svg>
