<svg width="32" height="32" viewBox="0 0 32 32" fill="none" xmlns="http://www.w3.org/2000/svg">
<path fill-rule="evenodd" clip-rule="evenodd" d="M21.1271 23.1551C19.3341 24.5218 17.0952 25.3333 14.6667 25.3333C8.77563 25.3333 4 20.5577 4 14.6667C4 8.77563 8.77563 4 14.6667 4C20.5577 4 25.3333 8.77563 25.3333 14.6667C25.3333 17.4284 24.2838 19.9449 22.5618 21.8393C22.5972 21.8634 22.6315 21.89 22.6644 21.9193L28.6644 27.2526C29.0771 27.6195 29.1143 28.2516 28.7474 28.6644C28.3805 29.0771 27.7484 29.1143 27.3356 28.7474L21.3356 23.4141C21.2498 23.3378 21.1802 23.25 21.1271 23.1551ZM23.3333 14.6667C23.3333 19.4531 19.4531 23.3333 14.6667 23.3333C9.8802 23.3333 6 19.4531 6 14.6667C6 9.8802 9.8802 6 14.6667 6C19.4531 6 23.3333 9.8802 23.3333 14.6667Z" fill="#363538"/>
</svg>
