<svg width="73" height="72" viewBox="0 0 73 72" fill="none" xmlns="http://www.w3.org/2000/svg">
<circle cx="36.5" cy="36" r="35.5" fill="white" stroke="#1AA5BB"/>
<path d="M36.5 19.5C28.4919 19.5 22 25.9919 22 34V44C22 45.933 20.433 47.5 18.5 47.5C16.567 47.5 15 45.933 15 44V40C15 37.4824 16.6915 35.36 19 34.707V34C19 24.335 26.835 16.5 36.5 16.5C46.165 16.5 54 24.335 54 34V34.707C56.3085 35.36 58 37.4824 58 40V44C58 45.933 56.433 47.5 54.5 47.5C53.9464 47.5 53.4229 47.3715 52.9576 47.1427C50.9096 49.8656 46.2308 53.0811 38.12 53.4624C37.6069 54.3798 36.6259 55 35.5 55C33.8431 55 32.5 53.6569 32.5 52C32.5 50.3431 33.8431 49 35.5 49C36.5944 49 37.552 49.5861 38.076 50.4615C46.6007 50.0379 50.2162 46.2236 51.0462 44.57C51.0158 44.3845 51 44.1941 51 44V34C51 25.9919 44.5081 19.5 36.5 19.5Z" fill="#1DB7D0"/>
</svg>
