<svg width="73" height="72" viewBox="0 0 73 72" fill="none" xmlns="http://www.w3.org/2000/svg">
<circle cx="36.5" cy="36" r="35.5" fill="white" stroke="#1DB7D0"/>
<path fill-rule="evenodd" clip-rule="evenodd" d="M46.5 36C46.5 41.5228 42.0228 46 36.5 46C30.9772 46 26.5 41.5228 26.5 36C26.5 30.4772 30.9772 26 36.5 26C42.0228 26 46.5 30.4772 46.5 36ZM43.5 36C43.5 39.866 40.366 43 36.5 43C32.634 43 29.5 39.866 29.5 36C29.5 32.134 32.634 29 36.5 29C40.366 29 43.5 32.134 43.5 36Z" fill="#1DB7D0"/>
<path fill-rule="evenodd" clip-rule="evenodd" d="M52.5 28.4024C52.7982 27.9796 53.0047 27.512 53.1197 27.0271C53.4292 25.7215 53.0748 24.2905 52.0564 23.2721L49.2279 20.4436C48.2095 19.4252 46.7785 19.0708 45.4729 19.3803C44.988 19.4952 44.5204 19.7018 44.0976 20C43.9127 20.1304 43.7365 20.2782 43.5711 20.4436L42.5 21.5147V20C42.5 19.7661 42.4799 19.5369 42.4414 19.3139C42.3533 18.8042 42.1687 18.3274 41.9071 17.9033C41.2027 16.7612 39.9403 16 38.5 16H34.5C33.0597 16 31.7973 16.7612 31.0929 17.9033C30.8313 18.3274 30.6467 18.8042 30.5586 19.314C30.5201 19.5369 30.5 19.7661 30.5 20V21.5147L29.4289 20.4436C29.2636 20.2782 29.0873 20.1304 28.9024 20C28.4797 19.7018 28.012 19.4952 27.5271 19.3803C26.2215 19.0708 24.7905 19.4252 23.7721 20.4436L20.9437 23.2721C19.9252 24.2905 19.5708 25.7215 19.8803 27.0271C19.9953 27.512 20.2018 27.9796 20.5 28.4024C20.6304 28.5872 20.7783 28.7635 20.9437 28.9289L22.0147 30H20.5C20.2661 30 20.0369 30.0201 19.814 30.0586C19.3042 30.1467 18.8275 30.3313 18.4033 30.5929C17.2612 31.2972 16.5 32.5597 16.5 34V38C16.5 39.4403 17.2612 40.7027 18.4033 41.4071C18.8275 41.6687 19.3042 41.8533 19.814 41.9414C20.0369 41.9799 20.2661 42 20.5 42H22.0147L20.9437 43.071C20.7783 43.2364 20.6304 43.4127 20.5 43.5976C20.2018 44.0204 19.9953 44.488 19.8803 44.9729C19.5708 46.2785 19.9252 47.7095 20.9437 48.7279L23.7721 51.5563C24.7905 52.5748 26.2215 52.9292 27.5271 52.6197C28.012 52.5047 28.4796 52.2982 28.9024 52C29.0873 51.8696 29.2635 51.7217 29.4289 51.5563L30.5 50.4853V52C30.5 52.2339 30.5201 52.4631 30.5586 52.686C30.6467 53.1958 30.8313 53.6725 31.0929 54.0967C31.7972 55.2388 33.0597 56 34.5 56H38.5C39.9403 56 41.2028 55.2388 41.9071 54.0967C42.1687 53.6725 42.3533 53.1958 42.4414 52.686C42.4799 52.4631 42.5 52.2339 42.5 52V50.4853L43.5711 51.5563C43.7365 51.7217 43.9128 51.8696 44.0976 52C44.5204 52.2982 44.988 52.5047 45.4729 52.6197C46.7785 52.9292 48.2095 52.5748 49.2279 51.5563L52.0564 48.7279C53.0748 47.7095 53.4292 46.2785 53.1197 44.9729C53.0047 44.488 52.7982 44.0203 52.5 43.5976C52.3696 43.4127 52.2217 43.2364 52.0564 43.0711L50.9853 42H52.5C52.7339 42 52.9631 41.9799 53.186 41.9414C53.6958 41.8533 54.1726 41.6687 54.5967 41.4071C55.7388 40.7027 56.5 39.4403 56.5 38V34C56.5 32.5597 55.7388 31.2972 54.5967 30.5929C54.1725 30.3313 53.6958 30.1467 53.1861 30.0586C52.9631 30.0201 52.7339 30 52.5 30H50.9853L52.0564 28.9289C52.2217 28.7635 52.3696 28.5872 52.5 28.4024ZM28.3787 23.636C29.2367 24.494 30.527 24.7507 31.6481 24.2863C32.7691 23.822 33.5 22.7281 33.5 21.5147V20C33.5 19.4477 33.9477 19 34.5 19H38.5C39.0523 19 39.5 19.4477 39.5 20V21.5147C39.5 22.7281 40.2309 23.822 41.3519 24.2863C42.473 24.7507 43.7633 24.494 44.6213 23.636L45.6924 22.565C46.0829 22.1744 46.7161 22.1744 47.1066 22.565L49.935 25.3934C50.3256 25.7839 50.3256 26.4171 49.935 26.8076L48.8639 27.8787C48.006 28.7367 47.7493 30.027 48.2136 31.1481C48.678 32.2691 49.7719 33 50.9853 33H52.5C53.0523 33 53.5 33.4477 53.5 34V38C53.5 38.5523 53.0523 39 52.5 39H50.9853C49.7719 39 48.678 39.7309 48.2137 40.8519C47.7493 41.973 48.006 43.2633 48.864 44.1213L49.935 45.1924C50.3256 45.5829 50.3256 46.2161 49.935 46.6066L47.1066 49.435C46.7161 49.8255 46.0829 49.8255 45.6924 49.435L44.6213 48.3639C43.7633 47.5059 42.473 47.2493 41.352 47.7136C40.2309 48.178 39.5 49.2719 39.5 50.4853V52C39.5 52.5523 39.0523 53 38.5 53H34.5C33.9477 53 33.5 52.5523 33.5 52V50.4853C33.5 49.2719 32.7691 48.178 31.6481 47.7136C30.527 47.2493 29.2367 47.506 28.3787 48.364L27.3076 49.435C26.9171 49.8255 26.2839 49.8255 25.8934 49.435L23.065 46.6066C22.6745 46.2161 22.6745 45.5829 23.065 45.1924L24.136 44.1213C24.994 43.2633 25.2507 41.973 24.7863 40.8519C24.322 39.7309 23.2281 39 22.0147 39H20.5C19.9477 39 19.5 38.5523 19.5 38V34C19.5 33.4477 19.9477 33 20.5 33H22.0147C23.2281 33 24.322 32.2691 24.7864 31.1481C25.2507 30.027 24.9941 28.7367 24.1361 27.8787L23.065 26.8076C22.6745 26.4171 22.6745 25.7839 23.065 25.3934L25.8934 22.565C26.2839 22.1744 26.9171 22.1744 27.3076 22.565L28.3787 23.636Z" fill="#1DB7D0"/>
</svg>
