<svg width="72" height="72" viewBox="0 0 72 72" fill="none" xmlns="http://www.w3.org/2000/svg">
<circle cx="36" cy="36" r="35.5" fill="white" stroke="#1AA5BB"/>
<path d="M20.5 26C20.5 20.7533 24.7533 16.5 30 16.5H38.6863C41.2058 16.5 43.6222 17.5009 45.4038 19.2825L48.7175 22.5962C50.4991 24.3778 51.5 26.7942 51.5 29.3137V36C51.5 36.8284 50.8284 37.5 50 37.5C49.1716 37.5 48.5 36.8284 48.5 36V29.3137C48.5 27.5898 47.8152 25.9365 46.5962 24.7175L43.2825 21.4038C42.0635 20.1848 40.4102 19.5 38.6863 19.5H30C26.4101 19.5 23.5 22.4101 23.5 26V46C23.5 49.5899 26.4101 52.5 30 52.5H36C36.8284 52.5 37.5 53.1716 37.5 54C37.5 54.8284 36.8284 55.5 36 55.5H30C24.7533 55.5 20.5 51.2467 20.5 46V26Z" fill="#1AA5BB"/>
<path d="M26.5 38C26.5 37.1716 27.1716 36.5 28 36.5H40C40.8284 36.5 41.5 37.1716 41.5 38C41.5 38.8284 40.8284 39.5 40 39.5H28C27.1716 39.5 26.5 38.8284 26.5 38Z" fill="#1AA5BB"/>
<path d="M28 28.5C27.1716 28.5 26.5 29.1716 26.5 30C26.5 30.8284 27.1716 31.5 28 31.5H36C36.8284 31.5 37.5 30.8284 37.5 30C37.5 29.1716 36.8284 28.5 36 28.5H28Z" fill="#1AA5BB"/>
<path d="M26.5 46C26.5 45.1716 27.1716 44.5 28 44.5H34C34.8284 44.5 35.5 45.1716 35.5 46C35.5 46.8284 34.8284 47.5 34 47.5H28C27.1716 47.5 26.5 46.8284 26.5 46Z" fill="#1AA5BB"/>
<path fill-rule="evenodd" clip-rule="evenodd" d="M47.1371 40.4923C47.5407 39.8359 48.4593 39.8359 48.8629 40.4923L50.9308 43.8554C51.0697 44.0812 51.2847 44.2444 51.5333 44.3126L55.2342 45.3277C55.9566 45.5259 56.2405 46.4384 55.7675 47.0423L53.3446 50.1359C53.1819 50.3436 53.0998 50.6076 53.1145 50.8757L53.3339 54.8661C53.3767 55.645 52.6336 56.209 51.9377 55.9257L48.3723 54.4746C48.1329 54.3772 47.8671 54.3772 47.6277 54.4746L44.0623 55.9257C43.3664 56.209 42.6233 55.645 42.6661 54.8661L42.8855 50.8757C42.9002 50.6076 42.8181 50.3436 42.6554 50.1359L40.2325 47.0423C39.7595 46.4384 40.0434 45.5259 40.7658 45.3277L44.4667 44.3126C44.7153 44.2444 44.9303 44.0812 45.0692 43.8554L47.1371 40.4923ZM47.6247 45.4267L48 44.8164L48.3753 45.4267C48.9 46.28 49.7344 46.93 50.7397 47.2057L51.6363 47.4516L50.9828 48.2861C50.3633 49.077 50.0651 50.0599 50.119 51.0404L50.17 51.9673L49.5032 51.696C48.5387 51.3034 47.4613 51.3034 46.4967 51.696L45.83 51.9673L45.881 51.0404C45.9349 50.0599 45.6367 49.077 45.0172 48.2861L44.3637 47.4516L45.2603 47.2057C46.2656 46.93 47.1 46.28 47.6247 45.4267Z" fill="#1AA5BB"/>
</svg>
