<svg width="16" height="17" viewBox="0 0 16 17" fill="none" xmlns="http://www.w3.org/2000/svg">
<path d="M6.84612 2.80005C7.37784 1.95467 8.62249 1.95467 9.15421 2.80005L10.4401 4.84455C10.6272 5.14199 10.9244 5.35544 11.2684 5.43941L13.6327 6.01658C14.6104 6.25523 14.995 7.42539 14.346 8.18652L12.7764 10.0273C12.548 10.2951 12.4345 10.6404 12.46 10.9898L12.6353 13.391C12.7078 14.3838 11.7009 15.107 10.768 14.7321L8.51205 13.8252C8.18384 13.6933 7.81648 13.6933 7.48828 13.8252L5.23228 14.7321C4.29945 15.107 3.2925 14.3838 3.365 13.391L3.54034 10.9898C3.56585 10.6404 3.45233 10.2951 3.22398 10.0273L1.65436 8.18652C1.00533 7.42539 1.38995 6.25523 2.3676 6.01658L4.73195 5.43941C5.07593 5.35544 5.37313 5.14199 5.5602 4.84455L6.84612 2.80005Z" fill="#FFD700"/>
</svg>
