<svg width="1037" height="136" viewBox="0 0 1037 136" fill="none" xmlns="http://www.w3.org/2000/svg">
<path fill-rule="evenodd" clip-rule="evenodd" d="M1019.12 0.230753C1005.93 2.51933 1009.99 4.65419 1017.27 3.08293C1029.28 0.486939 1036.44 4.50048 1032.92 11.8786C1030.42 17.1047 1018.38 23.3044 1006.02 25.7296C993.132 28.2572 970.618 28.428 955.477 26.0028C954.016 25.7637 940.452 23.885 938.087 23.5264C928.186 22.0064 922.807 21.8014 918.958 22.8603C913.764 24.2949 912.257 30.0334 916.338 32.8344C918.146 34.0811 918.564 33.8762 917.451 32.322C912.883 25.9345 922.76 22.587 938.319 25.2514C946.179 26.6006 952.231 27.2325 956.451 27.9498C994.291 34.3886 1036.98 24.7048 1036.88 9.60707C1036.86 3.9198 1027.22 -1.16972 1019.12 0.230753Z" fill="#1AA5BB"/>
<path fill-rule="evenodd" clip-rule="evenodd" d="M105.124 101.879C91.9307 104.168 95.9884 106.303 103.269 104.731C115.28 102.135 122.444 106.149 118.92 113.527C116.416 118.753 104.382 124.953 92.0235 127.378C79.1317 129.906 56.6175 130.076 41.4767 127.651C40.0159 127.412 26.4517 125.533 24.0867 125.175C14.186 123.655 8.80667 123.45 4.95769 124.509C-0.236111 125.943 -1.74325 131.682 2.3376 134.483C4.14616 135.73 4.56352 135.525 3.45056 133.97C-1.1172 127.583 8.76029 124.235 24.3186 126.9C32.1788 128.249 38.2305 128.881 42.4505 129.598C80.291 136.037 122.978 126.353 122.885 111.256C122.862 105.568 113.216 100.479 105.124 101.879Z" fill="#1AA5BB"/>
</svg>
