<svg width="72" height="72" viewBox="0 0 72 72" fill="none" xmlns="http://www.w3.org/2000/svg">
<circle cx="36" cy="36" r="35.5" fill="white" stroke="#1AA5BB"/>
<path fill-rule="evenodd" clip-rule="evenodd" d="M20 32C20 23 27.1634 16 36 16C44.8366 16 52 23 52 32C52 38.8542 47.36 43.3884 45.1474 45.1609C44.4549 45.7157 44 46.5391 44 47.4264C44 48.8478 42.8478 50 41.4264 50H30.5736C29.1522 50 28 48.8478 28 47.4264C28 46.5391 27.5451 45.7157 26.8526 45.1609C24.64 43.3884 20 38.8542 20 32ZM23 32C23 24.6768 28.8002 19 36 19C43.1998 19 49 24.6768 49 32C49 37.4517 45.2761 41.2139 43.2718 42.8195C42.0751 43.7782 41.1475 45.255 41.016 47H30.984C30.8525 45.255 29.9249 43.7782 28.7282 42.8195C26.7239 41.2139 23 37.4517 23 32Z" fill="#1AA5BB"/>
<path d="M30.2466 51.5204C29.4294 51.3842 28.6566 51.9362 28.5204 52.7534C28.3842 53.5706 28.9362 54.3434 29.7534 54.4796C33.8893 55.1689 38.1107 55.1689 42.2466 54.4796C43.0638 54.3434 43.6158 53.5706 43.4796 52.7534C43.3434 51.9362 42.5706 51.3842 41.7534 51.5204C37.9441 52.1553 34.0559 52.1553 30.2466 51.5204Z" fill="#1AA5BB"/>
</svg>
