<svg width="72" height="72" viewBox="0 0 72 72" fill="none" xmlns="http://www.w3.org/2000/svg">
<circle cx="36" cy="36" r="35.5" fill="white" stroke="#1AA5BB"/>
<path fill-rule="evenodd" clip-rule="evenodd" d="M34.0675 34.6913C35.0168 33.369 36.9838 33.369 37.933 34.6913C38.3318 35.2467 38.9502 35.6037 39.6305 35.6713C41.2503 35.8323 42.2338 37.5357 41.5633 39.019C41.2817 39.642 41.2817 40.3561 41.5633 40.9791C42.2338 42.4623 41.2503 44.1658 39.6305 44.3267C38.9502 44.3944 38.3318 44.7514 37.933 45.3068C36.9838 46.6291 35.0168 46.6291 34.0675 45.3068C33.6688 44.7514 33.0504 44.3944 32.37 44.3267C30.7502 44.1658 29.7667 42.4623 30.4372 40.9791C30.7189 40.3561 30.7189 39.642 30.4372 39.019C29.7667 37.5358 30.7502 35.8323 32.37 35.6713C33.0504 35.6037 33.6688 35.2467 34.0675 34.6913ZM33.4417 41.4762C33.7174 40.511 33.7174 39.4871 33.4417 38.5219C34.4155 38.278 35.3022 37.766 36.0003 37.0447C36.6984 37.766 37.5851 38.278 38.5588 38.5218C38.2832 39.4871 38.2832 40.511 38.5588 41.4762C37.5851 41.7201 36.6984 42.2321 36.0003 42.9534C35.3022 42.2321 34.4155 41.7201 33.4417 41.4762Z" fill="#1AA5BB"/>
<path fill-rule="evenodd" clip-rule="evenodd" d="M26.5003 22.8319V29.1429C26.2017 29.5729 25.9844 30.0688 25.8743 30.6117C25.6464 31.7357 24.9418 32.7054 23.9433 33.2696C22.1558 34.2794 21.4379 36.4888 22.2904 38.3564C22.7667 39.3997 22.7667 40.5984 22.2904 41.6417C21.4379 43.5093 22.1558 45.7187 23.9433 46.7285C24.9418 47.2927 25.6464 48.2624 25.8743 49.3864C26.2824 51.3984 28.1618 52.7639 30.2014 52.5303C31.3409 52.3997 32.4809 52.7701 33.326 53.5455C34.8387 54.9334 37.1618 54.9334 38.6746 53.5455C39.5197 52.7701 40.6597 52.3997 41.7991 52.5303C43.8387 52.7639 45.7182 51.3984 46.1262 49.3864C46.3542 48.2624 47.0587 47.2927 48.0573 46.7285C49.8447 45.7187 50.5626 43.5093 49.7101 41.6417C49.2338 40.5984 49.2338 39.3997 49.7101 38.3564C50.5626 36.4888 49.8447 34.2794 48.0573 33.2696C47.0587 32.7054 46.3542 31.7357 46.1262 30.6117C46.0161 30.0688 45.7989 29.5729 45.5003 29.1429V22.8319C45.5003 18.5775 41.0232 15.8105 37.218 17.7131C36.4514 18.0964 35.5491 18.0964 34.7825 17.7131C30.9774 15.8105 26.5003 18.5776 26.5003 22.8319ZM33.4409 20.3964C31.6304 19.4912 29.5003 20.8077 29.5003 22.8319V27.4496C29.7305 27.4351 29.9649 27.4407 30.2014 27.4678C31.3409 27.5984 32.4809 27.228 33.326 26.4526C34.8387 25.0647 37.1618 25.0647 38.6746 26.4526C39.5197 27.228 40.6597 27.5984 41.7991 27.4678C42.0357 27.4407 42.2701 27.4351 42.5003 27.4496V22.8319C42.5003 20.8077 40.3701 19.4912 38.5596 20.3964C36.9485 21.202 35.0521 21.202 33.4409 20.3964ZM29.4132 30.5037C29.2998 30.8212 29.0825 31.0892 28.8022 31.2669C28.3889 33.2182 27.1573 34.8994 25.4189 35.8815C24.987 36.1255 24.8136 36.6594 25.0196 37.1106C25.857 38.9452 25.857 41.0529 25.0196 42.8875C24.8136 43.3387 24.987 43.8726 25.4189 44.1166C27.1747 45.1085 28.4136 46.8137 28.8145 48.7901C28.9131 49.2763 29.3672 49.6062 29.86 49.5497C31.8635 49.3202 33.8681 49.9715 35.3541 51.3349C35.7196 51.6702 36.2809 51.6702 36.6464 51.3349C38.1324 49.9715 40.137 49.3202 42.1405 49.5497C42.6334 49.6062 43.0875 49.2763 43.1861 48.7901C43.5869 46.8137 44.8258 45.1085 46.5816 44.1166C47.0135 43.8726 47.187 43.3387 46.981 42.8875C46.1436 41.0529 46.1436 38.9452 46.981 37.1106C47.187 36.6594 47.0135 36.1255 46.5816 35.8815C44.8433 34.8994 43.6116 33.2182 43.1983 31.2669C42.918 31.0892 42.7007 30.8212 42.5873 30.5037C42.449 30.4514 42.2967 30.4305 42.1405 30.4483C40.137 30.6779 38.1324 30.0266 36.6464 28.6632C36.2809 28.3279 35.7196 28.3279 35.3541 28.6632C33.8681 30.0265 31.8635 30.6779 29.86 30.4483C29.7038 30.4305 29.5516 30.4514 29.4132 30.5037Z" fill="#1AA5BB"/>
</svg>
