<svg width="73" height="72" viewBox="0 0 73 72" fill="none" xmlns="http://www.w3.org/2000/svg">
<circle cx="36.1431" cy="36" r="35.5" fill="white" stroke="#1AA5BB"/>
<path d="M22.5866 27.2997L23.8757 24.7214C24.7915 22.8899 27.2324 22.4937 28.6803 23.9417L32.1029 27.3643C33.016 28.2774 33.2424 29.6723 32.6649 30.8272L32.2708 31.6154C31.6367 32.8835 31.6262 34.3841 32.365 35.5942C32.9434 36.5415 33.6839 37.6295 34.4214 38.3669C35.0569 39.0025 35.9529 39.6403 36.7947 40.1747C38.2056 41.0703 40.0054 40.9014 41.3514 39.9111C42.5517 39.0279 44.221 39.173 45.2509 40.2499L48.1901 43.3232C49.586 44.7828 49.17 47.1768 47.3636 48.08L44.6991 49.4122C42.6284 50.4476 40.2822 50.8875 38.0934 50.133C35.4643 49.2267 31.6965 47.4147 28.1403 43.8585C24.5841 40.3023 22.7721 36.5345 21.8658 33.9054C21.1113 31.7166 21.5512 29.3704 22.5866 27.2997Z" fill="#1AA5BB"/>
</svg>
