<svg width="16" height="16" viewBox="0 0 16 16" fill="none" xmlns="http://www.w3.org/2000/svg">
<path fill-rule="evenodd" clip-rule="evenodd" d="M10.3335 1.33398C9.41302 1.33398 8.66683 2.08018 8.66683 3.00065V13.0007C8.66683 13.9211 9.41302 14.6673 10.3335 14.6673H13.0002C13.9206 14.6673 14.6668 13.9211 14.6668 13.0007V3.00065C14.6668 2.08018 13.9206 1.33398 13.0002 1.33398H10.3335ZM10.0002 3.00065C10.0002 2.81656 10.1494 2.66732 10.3335 2.66732H13.0002C13.1843 2.66732 13.3335 2.81656 13.3335 3.00065V13.0007C13.3335 13.1847 13.1843 13.334 13.0002 13.334H10.3335C10.1494 13.334 10.0002 13.1847 10.0002 13.0007V3.00065Z" fill="#F77A4A"/>
<path fill-rule="evenodd" clip-rule="evenodd" d="M3.00016 7.33398C2.07969 7.33398 1.3335 8.08018 1.3335 9.00065V13.0007C1.3335 13.9211 2.07969 14.6673 3.00016 14.6673H5.66683C6.5873 14.6673 7.3335 13.9211 7.3335 13.0007V9.00065C7.3335 8.08018 6.5873 7.33398 5.66683 7.33398H3.00016ZM2.66683 9.00065C2.66683 8.81656 2.81607 8.66732 3.00016 8.66732H5.66683C5.85092 8.66732 6.00016 8.81656 6.00016 9.00065V13.0007C6.00016 13.1847 5.85092 13.334 5.66683 13.334H3.00016C2.81607 13.334 2.66683 13.1847 2.66683 13.0007V9.00065Z" fill="#F77A4A"/>
</svg>
