<svg width="48" height="48" viewBox="0 0 48 48" fill="none" xmlns="http://www.w3.org/2000/svg">
<path fill-rule="evenodd" clip-rule="evenodd" d="M44 24C44 16.5231 44 12.7846 42.3923 10C41.3391 8.17577 39.8242 6.66091 38 5.60769C35.2154 4 31.4769 4 24 4C16.5231 4 12.7846 4 10 5.60769C8.17577 6.66091 6.66091 8.17577 5.60769 10C4 12.7846 4 16.5231 4 24C4 31.4769 4 35.2154 5.60769 38C6.66091 39.8242 8.17577 41.3391 10 42.3923C12.7846 44 16.5231 44 24 44C31.4769 44 35.2154 44 38 42.3923C39.8242 41.3391 41.3391 39.8242 42.3923 38C44 35.2154 44 31.4769 44 24ZM27.0607 30.9393C27.6464 31.5251 27.6464 32.4749 27.0607 33.0607C26.4749 33.6464 25.5251 33.6464 24.9393 33.0607L19.7678 27.8891C17.6199 25.7412 17.6199 22.2588 19.7678 20.1109L24.9393 14.9393C25.5251 14.3536 26.4749 14.3536 27.0607 14.9393C27.6464 15.5251 27.6464 16.4749 27.0607 17.0607L21.8891 22.2322C20.9128 23.2085 20.9128 24.7915 21.8891 25.7678L27.0607 30.9393Z" fill="#B9E9F0"/>
</svg>
