<svg width="48" height="48" viewBox="0 0 48 48" fill="none" xmlns="http://www.w3.org/2000/svg">
<path fill-rule="evenodd" clip-rule="evenodd" d="M4 24C4 16.5231 4 12.7846 5.60769 10C6.66091 8.17577 8.17577 6.66091 10 5.60769C12.7846 4 16.5231 4 24 4C31.4769 4 35.2154 4 38 5.60769C39.8242 6.66091 41.3391 8.17577 42.3923 10C44 12.7846 44 16.5231 44 24C44 31.4769 44 35.2154 42.3923 38C41.3391 39.8242 39.8242 41.3391 38 42.3923C35.2154 44 31.4769 44 24 44C16.5231 44 12.7846 44 10 42.3923C8.17577 41.3391 6.66091 39.8242 5.60769 38C4 35.2154 4 31.4769 4 24ZM20.9393 30.9393C20.3536 31.5251 20.3536 32.4749 20.9393 33.0607C21.5251 33.6464 22.4749 33.6464 23.0607 33.0607L28.2322 27.8891C30.3801 25.7412 30.3801 22.2588 28.2322 20.1109L23.0607 14.9393C22.4749 14.3536 21.5251 14.3536 20.9393 14.9393C20.3536 15.5251 20.3536 16.4749 20.9393 17.0607L26.1109 22.2322C27.0872 23.2085 27.0872 24.7915 26.1109 25.7678L20.9393 30.9393Z" fill="#1AA5BB"/>
</svg>
