<svg width="32" height="32" viewBox="0 0 32 32" fill="none" xmlns="http://www.w3.org/2000/svg">
<path d="M17.8478 3.9026C17.8787 3.97733 17.905 4.05372 17.9267 4.13132C18.225 4.18085 18.5187 4.24414 18.8071 4.32051C18.3182 4.833 17.9303 5.44273 17.6755 6.11773C17.2428 6.04122 16.7976 6.0013 16.343 6.0013C12.1458 6.0013 8.74302 9.40426 8.74302 13.6017V15.3346C8.74302 18.0068 7.93013 21.1977 7.21375 23.5243C7.1294 23.7983 7.18235 24.0945 7.34796 24.3303C7.50874 24.5593 7.7263 24.668 7.95564 24.668H24.4128C24.8378 24.668 25.2732 24.2138 25.1425 23.6569C24.5876 21.293 23.943 18.0029 23.943 15.3346V13.6017C23.943 13.4615 23.9392 13.3221 23.9317 13.1837C24.6374 13.0121 25.2881 12.7 25.8526 12.2789C25.9122 12.7113 25.943 13.1529 25.943 13.6017V15.3346C25.943 17.7561 26.5392 20.8548 27.0896 23.1999C27.498 24.9399 26.2 26.668 24.4128 26.668H18.6667C18.6667 27.0182 18.5977 27.3649 18.4637 27.6885C18.3297 28.012 18.1332 28.306 17.8856 28.5536C17.638 28.8012 17.344 28.9976 17.0205 29.1316C16.697 29.2657 16.3502 29.3346 16 29.3346C15.6498 29.3346 15.303 29.2657 14.9795 29.1316C14.656 28.9976 14.362 28.8012 14.1144 28.5536C13.8668 28.306 13.6703 28.012 13.5363 27.6885C13.4023 27.3649 13.3333 27.0182 13.3333 26.668H7.95564C6.06459 26.668 4.74582 24.7431 5.30231 22.9358C6.01032 20.6363 6.74302 17.6881 6.74302 15.3346V13.6017C6.74302 9.09439 9.84936 5.31223 14.038 4.27984C14.0635 4.15095 14.1017 4.02457 14.1522 3.9026C14.2528 3.65995 14.4001 3.43947 14.5858 3.25376C14.7715 3.06804 14.992 2.92072 15.2346 2.82021C15.4773 2.7197 15.7374 2.66797 16 2.66797C16.2626 2.66797 16.5227 2.7197 16.7654 2.82021C17.008 2.92072 17.2285 3.06804 17.4142 3.25376C17.5999 3.43947 17.7472 3.65995 17.8478 3.9026Z" fill="#545454"/>
<path d="M22.6667 12.0013C24.8758 12.0013 26.6667 10.2104 26.6667 8.0013C26.6667 5.79216 24.8758 4.0013 22.6667 4.0013C20.4575 4.0013 18.6667 5.79216 18.6667 8.0013C18.6667 10.2104 20.4575 12.0013 22.6667 12.0013Z" fill="#545454"/>
</svg>
