<svg width="25" height="25" viewBox="0 0 25 25" fill="none" xmlns="http://www.w3.org/2000/svg">
<path d="M17.9697 10.0303C17.6768 9.73744 17.6768 9.26256 17.9697 8.96967C18.2626 8.67678 18.7374 8.67678 19.0303 8.96967L22.0283 11.9676C22.035 11.9743 22.0416 11.9811 22.0481 11.9881C22.1733 12.1221 22.25 12.3021 22.25 12.5C22.25 12.6006 22.2302 12.6966 22.1943 12.7842C22.1577 12.8738 22.103 12.9577 22.0303 13.0303L19.0303 16.0303C18.7374 16.3232 18.2626 16.3232 17.9697 16.0303C17.6768 15.7374 17.6768 15.2626 17.9697 14.9697L19.6893 13.25H3.5C3.08579 13.25 2.75 12.9142 2.75 12.5C2.75 12.0858 3.08579 11.75 3.5 11.75H19.6893L17.9697 10.0303Z" fill="white"/>
</svg>
