<svg width="23" height="24" viewBox="0 0 23 24" fill="none" xmlns="http://www.w3.org/2000/svg">
<path d="M16.1261 9.53033C15.8557 9.23744 15.8557 8.76256 16.1261 8.46967C16.3964 8.17678 16.8348 8.17678 17.1051 8.46967L19.8725 11.4676C19.8787 11.4743 19.8848 11.4811 19.8908 11.4881C20.0064 11.6221 20.0771 11.8021 20.0771 12C20.0771 12.1006 20.0589 12.1966 20.0257 12.2842C19.9919 12.3738 19.9415 12.4577 19.8744 12.5303L17.1051 15.5303C16.8348 15.8232 16.3964 15.8232 16.1261 15.5303C15.8557 15.2374 15.8557 14.7626 16.1261 14.4697L17.7135 12.75H2.76946C2.38711 12.75 2.07715 12.4142 2.07715 12C2.07715 11.5858 2.38711 11.25 2.76946 11.25H17.7135L16.1261 9.53033Z" fill="white"/>
</svg>
