<svg width="20" height="20" viewBox="0 0 20 20" fill="none" xmlns="http://www.w3.org/2000/svg">
<path fill-rule="evenodd" clip-rule="evenodd" d="M14.1668 5.83464C14.1668 8.13582 12.3013 10.0013 10.0002 10.0013C7.69898 10.0013 5.8335 8.13582 5.8335 5.83464C5.8335 3.53345 7.69898 1.66797 10.0002 1.66797C12.3013 1.66797 14.1668 3.53345 14.1668 5.83464ZM12.9168 5.83464C12.9168 7.44547 11.611 8.7513 10.0002 8.7513C8.38933 8.7513 7.0835 7.44547 7.0835 5.83464C7.0835 4.22381 8.38933 2.91797 10.0002 2.91797C11.611 2.91797 12.9168 4.22381 12.9168 5.83464Z" fill="#CACACA"/>
<path fill-rule="evenodd" clip-rule="evenodd" d="M16.6668 14.5846C16.6668 16.6557 13.6821 18.3346 10.0002 18.3346C6.31826 18.3346 3.3335 16.6557 3.3335 14.5846C3.3335 12.5136 6.31826 10.8346 10.0002 10.8346C13.6821 10.8346 16.6668 12.5136 16.6668 14.5846ZM15.4168 14.5846C15.4168 14.968 15.1274 15.5697 14.1014 16.1468C13.1146 16.7019 11.6671 17.0846 10.0002 17.0846C8.33323 17.0846 6.88577 16.7019 5.89894 16.1468C4.87293 15.5697 4.5835 14.968 4.5835 14.5846C4.5835 14.2013 4.87293 13.5996 5.89894 13.0225C6.88577 12.4674 8.33323 12.0846 10.0002 12.0846C11.6671 12.0846 13.1146 12.4674 14.1014 13.0225C15.1274 13.5996 15.4168 14.2013 15.4168 14.5846Z" fill="#CACACA"/>
</svg>
