<svg width="20" height="20" viewBox="0 0 20 20" fill="none" xmlns="http://www.w3.org/2000/svg">
<path fill-rule="evenodd" clip-rule="evenodd" d="M2.74408 13.0876L11.25 4.5817C12.4006 3.4311 14.2661 3.4311 15.4167 4.58169C16.5673 5.73229 16.5673 7.59777 15.4167 8.74836L6.91074 17.2543C6.75446 17.4106 6.5425 17.4984 6.32149 17.4984H3.33333C2.8731 17.4984 2.5 17.1253 2.5 16.665V13.6769C2.5 13.4559 2.5878 13.2439 2.74408 13.0876ZM14.5328 7.86448L6.1489 16.2484H3.75V13.8495L12.1339 5.46558C12.7963 4.80314 13.8703 4.80314 14.5328 5.46558C15.1952 6.12802 15.1952 7.20204 14.5328 7.86448Z" fill="#CACACA"/>
</svg>
