<svg width="64" height="64" viewBox="0 0 64 64" fill="none" xmlns="http://www.w3.org/2000/svg">
<circle cx="32" cy="32" r="32" fill="#1AA5BB"/>
<path fill-rule="evenodd" clip-rule="evenodd" d="M39.9041 19.0938H24.666C21.2997 19.0938 18.5708 21.8227 18.5708 25.189V34.8889C18.5708 37.9476 21.0503 40.4271 24.109 40.4271C25.4504 40.4271 26.7463 40.914 27.7559 41.7974L30.2782 44.0044C31.4272 45.0098 33.1429 45.0098 34.292 44.0044L36.8143 41.7974C37.8239 40.914 39.1197 40.4271 40.4612 40.4271C43.5199 40.4271 45.9994 37.9476 45.9994 34.8889V25.189C45.9994 21.8227 43.2704 19.0938 39.9041 19.0938ZM25.047 26.7128C25.047 26.0816 25.5587 25.5699 26.1898 25.5699H36.8565C37.4877 25.5699 37.9994 26.0816 37.9994 26.7128C37.9994 27.344 37.4877 27.8557 36.8565 27.8557H26.1898C25.5587 27.8557 25.047 27.344 25.047 26.7128ZM26.1898 31.6652C25.5587 31.6652 25.047 32.1769 25.047 32.808C25.047 33.4392 25.5587 33.9509 26.1898 33.9509H38.3803C39.0115 33.9509 39.5232 33.4392 39.5232 32.808C39.5232 32.1769 39.0115 31.6652 38.3803 31.6652H26.1898Z" fill="white"/>
</svg>
