<svg width="45" height="45" viewBox="0 0 45 45" fill="none" xmlns="http://www.w3.org/2000/svg">
<circle cx="22.6001" cy="22.25" r="20.5" stroke="#6927DA" stroke-width="3"/>
<path d="M30.7316 30.3805C26.5922 34.5199 21.9027 37.2221 17.7263 38.296C13.5123 39.3796 10.1156 38.7558 8.10422 36.7444C6.09281 34.733 5.46902 31.3364 6.55265 27.1223C7.62657 22.9459 10.3288 18.2564 14.4682 14.117C18.6076 9.97761 23.2971 7.2754 27.4735 6.20148C31.6876 5.11785 35.0842 5.74164 37.0956 7.75305C39.107 9.76446 39.7308 13.1611 38.6472 17.3752C37.5732 21.5515 34.871 26.2411 30.7316 30.3805Z" stroke="#6927DA" stroke-width="3"/>
<path d="M30.7315 14.119C34.8709 18.2583 37.5731 22.9479 38.6471 27.1242C39.7307 31.3383 39.1069 34.735 37.0955 36.7464C35.0841 38.7578 31.6875 39.3816 27.4734 38.2979C23.297 37.224 18.6075 34.5218 14.4681 30.3824C10.3287 26.243 7.62647 21.5535 6.55255 17.3771C5.46893 13.163 6.09271 9.7664 8.10412 7.75499C10.1155 5.74358 13.5122 5.1198 17.7262 6.20342C21.9026 7.27734 26.5921 9.97956 30.7315 14.119Z" stroke="#6927DA" stroke-width="3"/>
</svg>
