<svg width="112" height="29" viewBox="0 0 112 29" fill="none" xmlns="http://www.w3.org/2000/svg">
<path d="M8.45031 22.2386C13.1603 22.2386 16.3403 19.7786 16.3403 15.8486C16.3403 7.5386 5.30031 11.0786 5.30031 6.69859C5.30031 5.4686 6.41031 4.62859 8.18031 4.62859C10.1903 4.62859 11.4503 5.70859 11.6003 7.35859H15.8903C15.7703 3.36859 12.7103 0.758595 8.18031 0.758595C3.92031 0.758595 0.920313 3.21859 0.920313 6.69859C0.920313 14.9486 11.8103 11.7986 11.8103 15.9086C11.8103 17.4986 10.4603 18.3386 8.45031 18.3386C6.23031 18.3386 4.82031 16.9886 4.64031 14.8586H0.320312C0.500313 19.3286 3.68031 22.2386 8.45031 22.2386Z" fill="#101828"/>
<path d="M17.3605 28.1186H21.5305V20.6486C22.3405 21.6686 23.8105 22.2386 25.5205 22.2386C29.8705 22.2386 32.8105 19.1486 32.8105 14.4386C32.8105 9.7286 30.1105 6.63859 25.8805 6.63859C23.9305 6.63859 22.4305 7.35859 21.5305 8.52859V6.8786H17.3605V28.1186ZM25.0105 18.6386C22.7605 18.6386 21.2905 16.9586 21.2905 14.4386C21.2905 11.8886 22.7605 10.2086 25.0105 10.2086C27.2005 10.2086 28.7005 11.8886 28.7005 14.4386C28.7005 16.9586 27.2005 18.6386 25.0105 18.6386Z" fill="#101828"/>
<path d="M33.8195 21.9986H37.9895V13.7186C37.9895 11.7686 39.2795 10.3586 41.1095 10.3586C42.8495 10.3586 44.0495 11.6786 44.0495 13.5086V21.9986H48.2195V12.5786C48.2195 9.09859 45.9995 6.63859 42.6095 6.63859C40.5095 6.63859 38.8595 7.50859 37.9895 8.97859V0.308594H33.8195V21.9986Z" fill="#101828"/>
<path d="M59.8848 16.8686C59.5548 18.1586 58.4448 18.8186 56.7648 18.8186C54.6648 18.8186 53.3148 17.4986 53.0148 15.3686H63.8748C63.9048 15.0386 63.9348 14.5886 63.9348 14.0186C63.9348 10.5686 61.8048 6.63859 56.4648 6.63859C51.3348 6.63859 48.9948 10.5686 48.9948 14.4086C48.9948 18.2186 51.6348 22.2386 56.7648 22.2386C60.4848 22.2386 63.3648 20.1386 63.9648 16.8686H59.8848ZM56.4648 9.69859C58.4748 9.69859 59.6448 11.0486 59.7648 12.7286H53.0748C53.4348 10.6286 54.5748 9.69859 56.4648 9.69859Z" fill="#101828"/>
<path d="M74.8712 10.3586V6.8786H72.7197C70.8897 6.8786 69.7497 7.50859 68.9397 9.39859V6.8786H64.7397V21.9986H68.9397V14.6486C68.9397 12.0686 69.8697 10.3586 71.9397 10.3586H74.8712Z" fill="#101828"/>
<path d="M89.2712 6.8786H85.0713V15.1586C85.0713 17.0786 83.7812 18.5186 81.9512 18.5186C80.2412 18.5186 79.0413 17.1986 79.0413 15.3686V6.8786H74.8712V16.2986C74.8712 19.7486 77.0912 22.2386 80.4812 22.2386C82.5512 22.2386 84.2313 21.3386 85.0713 19.8986V21.9986H89.2712V6.8786Z" fill="#101828"/>
<path d="M91.0715 21.9986H95.2415V0.308594H91.0715V21.9986Z" fill="#101828"/>
<path d="M107.147 16.8686C106.817 18.1586 105.707 18.8186 104.027 18.8186C101.927 18.8186 100.577 17.4986 100.277 15.3686H111.137C111.167 15.0386 111.197 14.5886 111.197 14.0186C111.197 10.5686 109.067 6.63859 103.727 6.63859C98.5966 6.63859 96.2566 10.5686 96.2566 14.4086C96.2566 18.2186 98.8966 22.2386 104.027 22.2386C107.747 22.2386 110.627 20.1386 111.227 16.8686H107.147ZM103.727 9.69859C105.737 9.69859 106.907 11.0486 107.027 12.7286H100.337C100.697 10.6286 101.837 9.69859 103.727 9.69859Z" fill="#101828"/>
</svg>
