<svg width="145" height="23" viewBox="0 0 145 23" fill="none" xmlns="http://www.w3.org/2000/svg">
<path d="M11.1398 22.2386C13.8398 22.2386 16.0598 20.8586 16.7498 18.7886V21.9986H20.7398V13.8986C20.7398 12.0686 19.2998 10.5086 17.3498 10.5086H11.6498V13.8986H15.6998C16.2098 13.8986 16.5398 14.2286 16.5398 14.7386C16.5398 16.6886 13.9598 18.5786 11.3498 18.5786C7.86982 18.5786 5.10982 15.8486 5.10982 11.4986C5.10982 7.14859 7.86982 4.62859 11.4398 4.62859C14.1398 4.62859 15.9998 6.09859 16.3298 8.34859H20.7998C20.5298 3.84859 16.7498 0.758595 11.4698 0.758595C5.91982 0.758595 0.819824 4.32859 0.819824 11.4986C0.819824 18.6686 5.76982 22.2386 11.1398 22.2386Z" fill="#101828"/>
<path d="M22.4526 21.9986H26.6226V0.308594H22.4526V21.9986Z" fill="#101828"/>
<path d="M35.6177 22.2386C40.2677 22.2386 43.5977 18.9386 43.5977 14.4386C43.5977 9.9386 40.2677 6.63859 35.6177 6.63859C30.9677 6.63859 27.6377 9.9386 27.6377 14.4386C27.6377 18.9386 30.9677 22.2386 35.6177 22.2386ZM35.6177 18.6386C33.3677 18.6386 31.8377 16.9286 31.8377 14.4386C31.8377 11.9186 33.3677 10.2086 35.6177 10.2086C37.8677 10.2086 39.3977 11.9186 39.3977 14.4386C39.3977 16.9286 37.8677 18.6386 35.6177 18.6386Z" fill="#101828"/>
<path d="M52.9287 22.2386C57.3987 22.2386 60.0687 19.1486 60.0687 14.4386C60.0687 9.7286 57.3987 6.63859 52.9887 6.63859C51.0987 6.63859 49.6287 7.35859 48.7887 8.46859V0.308594H44.6187V21.9986H48.7887V20.3486C49.6287 21.5186 51.1887 22.2386 52.9287 22.2386ZM52.2687 18.6386C50.0187 18.6386 48.5487 16.9586 48.5487 14.4386C48.5487 11.8886 50.0187 10.2086 52.2687 10.2086C54.4587 10.2086 55.9587 11.8886 55.9587 14.4386C55.9587 16.9586 54.4587 18.6386 52.2687 18.6386Z" fill="#101828"/>
<path d="M67.049 6.63859C62.909 6.63859 60.449 9.0686 60.269 12.0986H63.989C64.049 10.8386 64.979 9.69859 66.809 9.69859C68.519 9.69859 69.509 10.5686 69.509 11.8286C69.509 12.4586 69.119 12.9386 68.369 12.9386H65.819C62.519 12.9386 60.299 14.7386 60.299 17.7086C60.299 20.2886 62.309 22.2386 65.249 22.2386C67.319 22.2386 68.999 21.3086 69.509 19.8986V21.9986H73.649V12.2786C73.649 8.85859 70.859 6.63859 67.049 6.63859ZM66.299 19.2086C65.1291 19.2086 64.289 18.5186 64.289 17.5286C64.289 16.3586 65.189 15.5786 66.449 15.5786H69.509V15.7886C69.509 17.7086 68.3391 19.2086 66.299 19.2086Z" fill="#101828"/>
<path d="M75.2515 21.9986H79.4215V0.308594H75.2515V21.9986Z" fill="#101828"/>
<path d="M81.6365 21.9986H90.2165C94.6565 21.9986 97.7165 19.7186 97.7165 15.7286C97.7165 12.9686 96.0965 11.2886 94.1765 10.5386C95.4065 9.87859 96.6365 8.37859 96.6365 6.39859C96.6365 2.88859 93.7865 0.998594 89.9765 0.998594H81.6365V21.9986ZM86.0765 9.00859V4.56859H89.5565C91.5666 4.56859 92.4665 5.37859 92.4665 6.78859C92.4665 8.1986 91.5665 9.00859 89.6465 9.00859H86.0765ZM86.0765 18.0986V12.8186H89.8265C92.3165 12.8186 93.4265 13.7786 93.4265 15.4886C93.4265 17.1986 92.3165 18.0986 89.8265 18.0986H86.0765Z" fill="#101828"/>
<path d="M104.971 6.63859C100.831 6.63859 98.3709 9.0686 98.1909 12.0986H101.911C101.971 10.8386 102.901 9.69859 104.731 9.69859C106.441 9.69859 107.431 10.5686 107.431 11.8286C107.431 12.4586 107.041 12.9386 106.291 12.9386H103.741C100.441 12.9386 98.2209 14.7386 98.2209 17.7086C98.2209 20.2886 100.231 22.2386 103.171 22.2386C105.241 22.2386 106.921 21.3086 107.431 19.8986V21.9986H111.571V12.2786C111.571 8.85859 108.781 6.63859 104.971 6.63859ZM104.221 19.2086C103.051 19.2086 102.211 18.5186 102.211 17.5286C102.211 16.3586 103.111 15.5786 104.371 15.5786H107.431V15.7886C107.431 17.7086 106.261 19.2086 104.221 19.2086Z" fill="#101828"/>
<path d="M112.933 21.9986H117.133V13.7186C117.133 11.7686 118.423 10.3586 120.253 10.3586C121.993 10.3586 123.163 11.6786 123.163 13.5086V21.9986H127.363V12.5786C127.363 9.09859 125.143 6.63859 121.723 6.63859C119.653 6.63859 117.973 7.50859 117.133 8.97859V6.8786H112.933V21.9986Z" fill="#101828"/>
<path d="M139.334 21.9986H144.374L137.864 12.8186L143.894 6.8786H138.614L133.364 12.0386V0.308594H129.164V21.9986H133.364V17.2586L135.044 15.6086L139.334 21.9986Z" fill="#101828"/>
</svg>
