<svg width="145" height="21" viewBox="0 0 145 21" fill="none" xmlns="http://www.w3.org/2000/svg">
<path d="M0.332031 0.0078125V19.9998H4.72803V11.7398H13.1V8.32381H4.72803V3.70381H14.388V0.0078125H0.332031Z" fill="#101828"/>
<path d="M25.4137 11.2078H18.9457C18.9644 10.9278 19.0204 10.6105 19.1137 10.2558C19.2257 9.90115 19.403 9.56515 19.6457 9.24781C19.907 8.93048 20.243 8.66915 20.6537 8.46381C21.083 8.23981 21.615 8.12781 22.2497 8.12781C23.2204 8.12781 23.939 8.38915 24.4057 8.91181C24.891 9.43448 25.227 10.1998 25.4137 11.2078ZM18.9457 13.7278H29.3897C29.4644 12.6078 29.371 11.5345 29.1097 10.5078C28.8484 9.48115 28.419 8.56648 27.8217 7.76381C27.243 6.96115 26.4964 6.32648 25.5817 5.85981C24.667 5.37448 23.5937 5.13181 22.3617 5.13181C21.2604 5.13181 20.2524 5.32781 19.3377 5.71981C18.4417 6.11181 17.667 6.65315 17.0137 7.34381C16.3604 8.01581 15.8564 8.81848 15.5017 9.75181C15.147 10.6851 14.9697 11.6931 14.9697 12.7758C14.9697 13.8958 15.1377 14.9225 15.4737 15.8558C15.8284 16.7891 16.323 17.5918 16.9577 18.2638C17.5924 18.9358 18.367 19.4585 19.2817 19.8318C20.1964 20.1865 21.223 20.3638 22.3617 20.3638C24.0044 20.3638 25.4044 19.9905 26.5617 19.2438C27.719 18.4971 28.5777 17.2558 29.1377 15.5198H25.6377C25.507 15.9678 25.1524 16.3971 24.5737 16.8078C23.995 17.1998 23.3044 17.3958 22.5017 17.3958C21.3817 17.3958 20.523 17.1065 19.9257 16.5278C19.3284 15.9491 19.0017 15.0158 18.9457 13.7278Z" fill="#101828"/>
<path d="M30.7398 9.97581C30.7958 9.04248 31.0291 8.26781 31.4398 7.65181C31.8505 7.03581 32.3731 6.54115 33.0078 6.16781C33.6425 5.79448 34.3518 5.53315 35.1358 5.38381C35.9385 5.21581 36.7411 5.13181 37.5438 5.13181C38.2718 5.13181 39.0091 5.18781 39.7558 5.29981C40.5025 5.39315 41.1838 5.58915 41.7998 5.88781C42.4158 6.18648 42.9198 6.60648 43.3118 7.14781C43.7038 7.67048 43.8998 8.37048 43.8998 9.24781V16.7798C43.8998 17.4331 43.9371 18.0585 44.0118 18.6558C44.0865 19.2531 44.2171 19.7011 44.4038 19.9998H40.3718C40.2971 19.7758 40.2318 19.5518 40.1758 19.3278C40.1385 19.0851 40.1105 18.8425 40.0918 18.5998C39.4571 19.2531 38.7105 19.7105 37.8518 19.9718C36.9931 20.2331 36.1158 20.3638 35.2198 20.3638C34.5291 20.3638 33.8851 20.2798 33.2878 20.1118C32.6905 19.9438 32.1678 19.6825 31.7198 19.3278C31.2718 18.9731 30.9171 18.5251 30.6558 17.9838C30.4131 17.4425 30.2918 16.7985 30.2918 16.0518C30.2918 15.2305 30.4318 14.5585 30.7118 14.0358C31.0105 13.4945 31.3838 13.0651 31.8318 12.7478C32.2985 12.4305 32.8211 12.1971 33.3998 12.0478C33.9971 11.8798 34.5945 11.7491 35.1918 11.6558C35.7891 11.5625 36.3771 11.4878 36.9558 11.4318C37.5345 11.3758 38.0478 11.2918 38.4958 11.1798C38.9438 11.0678 39.2985 10.9091 39.5598 10.7038C39.8211 10.4798 39.9425 10.1625 39.9238 9.75181C39.9238 9.32248 39.8491 8.98648 39.6998 8.74381C39.5691 8.48248 39.3825 8.28648 39.1398 8.15581C38.9158 8.00648 38.6451 7.91315 38.3278 7.87581C38.0291 7.81981 37.7025 7.79181 37.3478 7.79181C36.5638 7.79181 35.9478 7.95981 35.4998 8.29581C35.0518 8.63181 34.7905 9.19181 34.7158 9.97581H30.7398ZM39.9238 12.9158C39.7558 13.0651 39.5411 13.1865 39.2798 13.2798C39.0371 13.3545 38.7665 13.4198 38.4678 13.4758C38.1878 13.5318 37.8891 13.5785 37.5718 13.6158C37.2545 13.6531 36.9371 13.6998 36.6198 13.7558C36.3211 13.8118 36.0225 13.8865 35.7238 13.9798C35.4438 14.0731 35.1918 14.2038 34.9678 14.3718C34.7625 14.5211 34.5945 14.7171 34.4638 14.9598C34.3331 15.2025 34.2678 15.5105 34.2678 15.8838C34.2678 16.2385 34.3331 16.5371 34.4638 16.7798C34.5945 17.0225 34.7718 17.2185 34.9958 17.3678C35.2198 17.4985 35.4811 17.5918 35.7798 17.6478C36.0785 17.7038 36.3865 17.7318 36.7038 17.7318C37.4878 17.7318 38.0945 17.6011 38.5238 17.3398C38.9531 17.0785 39.2705 16.7705 39.4758 16.4158C39.6811 16.0425 39.8025 15.6691 39.8398 15.2958C39.8958 14.9225 39.9238 14.6238 39.9238 14.3998V12.9158Z" fill="#101828"/>
<path d="M51.1859 5.52381V1.18381H47.2099V5.52381H44.8019V8.18381H47.2099V16.7238C47.2099 17.4518 47.3313 18.0398 47.5739 18.4878C47.8166 18.9358 48.1433 19.2811 48.5539 19.5238C48.9833 19.7665 49.4686 19.9251 50.0099 19.9998C50.5699 20.0931 51.1579 20.1398 51.7739 20.1398C52.1659 20.1398 52.5673 20.1305 52.9779 20.1118C53.3886 20.0931 53.7619 20.0558 54.0979 19.9998V16.9198C53.9113 16.9571 53.7153 16.9851 53.5099 17.0038C53.3046 17.0225 53.0899 17.0318 52.8659 17.0318C52.1939 17.0318 51.7459 16.9198 51.5219 16.6958C51.2979 16.4718 51.1859 16.0238 51.1859 15.3518V8.18381H54.0979V5.52381H51.1859Z" fill="#101828"/>
<path d="M55.1497 0.0078125V19.9998H59.1257V12.4118C59.1257 10.9371 59.3684 9.88248 59.8537 9.24781C60.339 8.59448 61.123 8.26781 62.2057 8.26781C63.1577 8.26781 63.8204 8.56648 64.1937 9.16381C64.567 9.74248 64.7537 10.6291 64.7537 11.8238V19.9998H68.7297V11.0958C68.7297 10.1998 68.6457 9.38781 68.4777 8.65981C68.3284 7.91315 68.0577 7.28781 67.6657 6.78381C67.2737 6.26115 66.7324 5.85981 66.0417 5.57981C65.3697 5.28115 64.5017 5.13181 63.4377 5.13181C62.691 5.13181 61.9257 5.32781 61.1417 5.71981C60.3577 6.09315 59.7137 6.69981 59.2097 7.53981H59.1257V0.0078125H55.1497Z" fill="#101828"/>
<path d="M80.6513 11.2078H74.1833C74.202 10.9278 74.258 10.6105 74.3513 10.2558C74.4633 9.90115 74.6407 9.56515 74.8833 9.24781C75.1447 8.93048 75.4807 8.66915 75.8913 8.46381C76.3207 8.23981 76.8527 8.12781 77.4874 8.12781C78.458 8.12781 79.1767 8.38915 79.6433 8.91181C80.1287 9.43448 80.4647 10.1998 80.6513 11.2078ZM74.1833 13.7278H84.6273C84.702 12.6078 84.6087 11.5345 84.3474 10.5078C84.086 9.48115 83.6567 8.56648 83.0593 7.76381C82.4807 6.96115 81.734 6.32648 80.8194 5.85981C79.9047 5.37448 78.8314 5.13181 77.5993 5.13181C76.498 5.13181 75.49 5.32781 74.5753 5.71981C73.6794 6.11181 72.9047 6.65315 72.2514 7.34381C71.598 8.01581 71.094 8.81848 70.7393 9.75181C70.3847 10.6851 70.2073 11.6931 70.2073 12.7758C70.2073 13.8958 70.3754 14.9225 70.7113 15.8558C71.066 16.7891 71.5607 17.5918 72.1954 18.2638C72.83 18.9358 73.6047 19.4585 74.5193 19.8318C75.434 20.1865 76.4607 20.3638 77.5993 20.3638C79.242 20.3638 80.642 19.9905 81.7993 19.2438C82.9567 18.4971 83.8154 17.2558 84.3754 15.5198H80.8754C80.7447 15.9678 80.39 16.3971 79.8113 16.8078C79.2327 17.1998 78.542 17.3958 77.7393 17.3958C76.6193 17.3958 75.7607 17.1065 75.1633 16.5278C74.566 15.9491 74.2393 15.0158 74.1833 13.7278Z" fill="#101828"/>
<path d="M86.1455 5.52381V19.9998H90.1215V13.4758C90.1215 12.8225 90.1868 12.2158 90.3175 11.6558C90.4481 11.0958 90.6628 10.6105 90.9615 10.1998C91.2788 9.77048 91.6895 9.43448 92.1935 9.19181C92.6975 8.94915 93.3135 8.82781 94.0415 8.82781C94.2841 8.82781 94.5361 8.84648 94.7975 8.88381C95.0588 8.90248 95.2828 8.93048 95.4695 8.96781V5.27181C95.1521 5.17848 94.8628 5.13181 94.6015 5.13181C94.0975 5.13181 93.6121 5.20648 93.1455 5.35581C92.6788 5.50515 92.2401 5.71981 91.8295 5.99981C91.4188 6.26115 91.0548 6.58781 90.7375 6.97981C90.4201 7.35315 90.1681 7.76381 89.9815 8.21181H89.9255V5.52381H86.1455Z" fill="#101828"/>
<path d="M101.004 16.3038V3.70381H104.14C105.223 3.70381 106.128 3.86248 106.856 4.17981C107.603 4.47848 108.2 4.91715 108.648 5.49581C109.096 6.07448 109.414 6.77448 109.6 7.59581C109.806 8.39848 109.908 9.30381 109.908 10.3118C109.908 11.4131 109.768 12.3465 109.488 13.1118C109.208 13.8771 108.835 14.5025 108.368 14.9878C107.902 15.4545 107.37 15.7905 106.772 15.9958C106.175 16.2011 105.559 16.3038 104.924 16.3038H101.004ZM96.6083 0.0078125V19.9998H105.232C106.763 19.9998 108.088 19.7478 109.208 19.2438C110.347 18.7211 111.29 18.0118 112.036 17.1158C112.802 16.2198 113.371 15.1558 113.744 13.9238C114.118 12.6918 114.304 11.3478 114.304 9.89181C114.304 8.23048 114.071 6.78381 113.604 5.55181C113.156 4.31981 112.522 3.29315 111.7 2.47181C110.898 1.65048 109.936 1.03448 108.816 0.623813C107.715 0.213146 106.52 0.0078125 105.232 0.0078125H96.6083Z" fill="#101828"/>
<path d="M125.846 11.2078H119.378C119.397 10.9278 119.453 10.6105 119.546 10.2558C119.658 9.90115 119.836 9.56515 120.078 9.24781C120.34 8.93048 120.676 8.66915 121.086 8.46381C121.516 8.23981 122.048 8.12781 122.682 8.12781C123.653 8.12781 124.372 8.38915 124.838 8.91181C125.324 9.43448 125.66 10.1998 125.846 11.2078ZM119.378 13.7278H129.822C129.897 12.6078 129.804 11.5345 129.542 10.5078C129.281 9.48115 128.852 8.56648 128.254 7.76381C127.676 6.96115 126.929 6.32648 126.014 5.85981C125.1 5.37448 124.026 5.13181 122.794 5.13181C121.693 5.13181 120.685 5.32781 119.77 5.71981C118.874 6.11181 118.1 6.65315 117.446 7.34381C116.793 8.01581 116.289 8.81848 115.934 9.75181C115.58 10.6851 115.402 11.6931 115.402 12.7758C115.402 13.8958 115.57 14.9225 115.906 15.8558C116.261 16.7891 116.756 17.5918 117.39 18.2638C118.025 18.9358 118.8 19.4585 119.714 19.8318C120.629 20.1865 121.656 20.3638 122.794 20.3638C124.437 20.3638 125.837 19.9905 126.994 19.2438C128.152 18.4971 129.01 17.2558 129.57 15.5198H126.07C125.94 15.9678 125.585 16.3971 125.006 16.8078C124.428 17.1998 123.737 17.3958 122.934 17.3958C121.814 17.3958 120.956 17.1065 120.358 16.5278C119.761 15.9491 119.434 15.0158 119.378 13.7278Z" fill="#101828"/>
<path d="M139.348 19.9998L144.248 5.52381H140.3L137.248 15.4078H137.192L134.14 5.52381H129.968L134.924 19.9998H139.348Z" fill="#101828"/>
</svg>
