<svg width="44" height="44" viewBox="0 0 44 44" fill="none" xmlns="http://www.w3.org/2000/svg">
<g clip-path="url(#clip0_2001_3778)">
<path d="M27.2694 2.12316L23.0486 0.992188L19.4917 14.2668L16.2804 2.2824L12.0595 3.41337L15.5291 16.3617L6.88724 7.71987L3.79738 10.8097L13.2764 20.2888L1.47179 17.1258L0.34082 21.3466L13.2388 24.8026C13.0912 24.1657 13.0131 23.502 13.0131 22.8201C13.0131 17.9934 16.9258 14.0807 21.7525 14.0807C26.5792 14.0807 30.492 17.9934 30.492 22.8201C30.492 23.4976 30.4148 24.1572 30.269 24.7904L41.9909 27.9312L43.1218 23.7104L30.1725 20.2407L41.9779 17.0774L40.8469 12.8566L27.8981 16.3262L36.54 7.68439L33.4501 4.59453L24.1026 13.9421L27.2694 2.12316Z" fill="#FF4405"/>
<path d="M30.2567 24.8395C29.8948 26.3694 29.1308 27.7438 28.0825 28.845L36.5745 37.3371L39.6644 34.2472L30.2567 24.8395Z" fill="#FF4405"/>
<path d="M27.9968 28.9338C26.9359 30.0174 25.5951 30.826 24.0916 31.2427L27.1817 42.775L31.4025 41.644L27.9968 28.9338Z" fill="#FF4405"/>
<path d="M23.934 31.2849C23.2364 31.4642 22.5053 31.5595 21.7518 31.5595C20.9446 31.5595 20.1629 31.4501 19.4208 31.2452L16.3279 42.788L20.5487 43.9189L23.934 31.2849Z" fill="#FF4405"/>
<path d="M19.2715 31.2027C17.791 30.7652 16.4741 29.9463 15.4348 28.8596L6.92192 37.3725L10.0118 40.4624L19.2715 31.2027Z" fill="#FF4405"/>
<path d="M15.3647 28.7844C14.3432 27.6908 13.5992 26.3347 13.2451 24.8284L1.48486 27.9796L2.61582 32.2004L15.3647 28.7844Z" fill="#FF4405"/>
</g>
<defs>
<clipPath id="clip0_2001_3778">
<rect width="44" height="44" fill="white"/>
</clipPath>
</defs>
</svg>
