<svg width="117" height="30" viewBox="0 0 117 30" fill="none" xmlns="http://www.w3.org/2000/svg">
<path d="M5.49102 18.3443H11.539V21.9083H0.874023V2.95425H5.49102V18.3443Z" fill="#101828"/>
<path d="M15.7932 5.27625C14.9832 5.27625 14.3172 5.04225 13.7952 4.57425C13.2912 4.08825 13.0392 3.49425 13.0392 2.79225C13.0392 2.07225 13.2912 1.47825 13.7952 1.01025C14.3172 0.52425 14.9832 0.28125 15.7932 0.28125C16.5852 0.28125 17.2332 0.52425 17.7372 1.01025C18.2592 1.47825 18.5202 2.07225 18.5202 2.79225C18.5202 3.49425 18.2592 4.08825 17.7372 4.57425C17.2332 5.04225 16.5852 5.27625 15.7932 5.27625ZM18.0882 6.84225V21.9083H13.4712V6.84225H18.0882Z" fill="#101828"/>
<path d="M26.8881 6.62625C27.9501 6.62625 28.8771 6.84225 29.6691 7.27425C30.4791 7.70625 31.1001 8.27325 31.5321 8.97525V6.84225H36.1491V21.8813C36.1491 23.2673 35.8701 24.5183 35.3121 25.6343C34.7721 26.7682 33.9351 27.6683 32.8011 28.3343C31.6851 29.0003 30.2901 29.3333 28.6161 29.3333C26.3841 29.3333 24.5751 28.8023 23.1891 27.7403C21.8031 26.6963 21.0111 25.2743 20.8131 23.4743H25.3761C25.5201 24.0503 25.8621 24.5003 26.4021 24.8243C26.9421 25.1663 27.6081 25.3373 28.4001 25.3373C29.3541 25.3373 30.1101 25.0583 30.6681 24.5003C31.2441 23.9603 31.5321 23.0872 31.5321 21.8813V19.7483C31.0821 20.4503 30.4611 21.0263 29.6691 21.4763C28.8771 21.9083 27.9501 22.1243 26.8881 22.1243C25.6461 22.1243 24.5211 21.8092 23.5131 21.1793C22.5051 20.5312 21.7041 19.6223 21.1101 18.4523C20.5341 17.2643 20.2461 15.8963 20.2461 14.3483C20.2461 12.8003 20.5341 11.4413 21.1101 10.2713C21.7041 9.10125 22.5051 8.20125 23.5131 7.57125C24.5211 6.94125 25.6461 6.62625 26.8881 6.62625ZM31.5321 14.3753C31.5321 13.2233 31.2081 12.3143 30.5601 11.6483C29.9301 10.9823 29.1561 10.6493 28.2381 10.6493C27.3201 10.6493 26.5371 10.9823 25.8891 11.6483C25.2591 12.2963 24.9441 13.1963 24.9441 14.3483C24.9441 15.5003 25.2591 16.4183 25.8891 17.1023C26.5371 17.7683 27.3201 18.1013 28.2381 18.1013C29.1561 18.1013 29.9301 17.7683 30.5601 17.1023C31.2081 16.4363 31.5321 15.5273 31.5321 14.3753Z" fill="#101828"/>
<path d="M48.4803 6.68025C50.2083 6.68025 51.5943 7.25625 52.6383 8.40825C53.6823 9.54225 54.2043 11.1083 54.2043 13.1063V21.9083H49.6143V13.7273C49.6143 12.7193 49.3533 11.9363 48.8313 11.3783C48.3093 10.8203 47.6073 10.5413 46.7253 10.5413C45.8433 10.5413 45.1413 10.8203 44.6193 11.3783C44.0973 11.9363 43.8363 12.7193 43.8363 13.7273V21.9083H39.2193V1.92825H43.8363V8.86725C44.3043 8.20125 44.9433 7.67025 45.7533 7.27425C46.5633 6.87825 47.4723 6.68025 48.4803 6.68025Z" fill="#101828"/>
<path d="M65.5396 17.9932V21.9083H63.1907C61.5167 21.9083 60.2117 21.5033 59.2757 20.6933C58.3397 19.8652 57.8717 18.5243 57.8717 16.6702V10.6763H56.0357V6.84225H57.8717V3.17025H62.4887V6.84225H65.5126V10.6763H62.4887V16.7243C62.4887 17.1743 62.5967 17.4983 62.8127 17.6963C63.0287 17.8943 63.3887 17.9932 63.8927 17.9932H65.5396Z" fill="#101828"/>
<path d="M72.4584 8.97525C72.8904 8.27325 73.5114 7.70625 74.3214 7.27425C75.1314 6.84225 76.0584 6.62625 77.1024 6.62625C78.3444 6.62625 79.4694 6.94125 80.4774 7.57125C81.4854 8.20125 82.2774 9.10125 82.8534 10.2713C83.4474 11.4413 83.7444 12.8003 83.7444 14.3483C83.7444 15.8963 83.4474 17.2643 82.8534 18.4523C82.2774 19.6223 81.4854 20.5312 80.4774 21.1793C79.4694 21.8092 78.3444 22.1243 77.1024 22.1243C76.0404 22.1243 75.1134 21.9172 74.3214 21.5033C73.5294 21.0713 72.9084 20.5042 72.4584 19.8022V21.9083H67.8414V1.92825H72.4584V8.97525ZM79.0464 14.3483C79.0464 13.1963 78.7224 12.2963 78.0744 11.6483C77.4444 10.9823 76.6614 10.6493 75.7254 10.6493C74.8074 10.6493 74.0244 10.9823 73.3764 11.6483C72.7464 12.3143 72.4314 13.2233 72.4314 14.3753C72.4314 15.5273 72.7464 16.4363 73.3764 17.1023C74.0244 17.7683 74.8074 18.1013 75.7254 18.1013C76.6434 18.1013 77.4264 17.7683 78.0744 17.1023C78.7224 16.4183 79.0464 15.5003 79.0464 14.3483Z" fill="#101828"/>
<path d="M92.7546 22.1243C91.2786 22.1243 89.9466 21.8092 88.7586 21.1793C87.5886 20.5493 86.6616 19.6493 85.9776 18.4792C85.3116 17.3092 84.9786 15.9413 84.9786 14.3753C84.9786 12.8273 85.3206 11.4683 86.0046 10.2983C86.6886 9.11025 87.6246 8.20125 88.8126 7.57125C90.0006 6.94125 91.3326 6.62625 92.8086 6.62625C94.2846 6.62625 95.6166 6.94125 96.8046 7.57125C97.9926 8.20125 98.9286 9.11025 99.6126 10.2983C100.297 11.4683 100.639 12.8273 100.639 14.3753C100.639 15.9233 100.288 17.2913 99.5856 18.4792C98.9016 19.6493 97.9566 20.5493 96.7506 21.1793C95.5626 21.8092 94.2306 22.1243 92.7546 22.1243ZM92.7546 18.1283C93.6366 18.1283 94.3836 17.8043 94.9956 17.1562C95.6256 16.5082 95.9406 15.5813 95.9406 14.3753C95.9406 13.1693 95.6346 12.2423 95.0226 11.5943C94.4286 10.9463 93.6906 10.6223 92.8086 10.6223C91.9086 10.6223 91.1616 10.9463 90.5676 11.5943C89.9736 12.2243 89.6766 13.1513 89.6766 14.3753C89.6766 15.5813 89.9646 16.5082 90.5406 17.1562C91.1346 17.8043 91.8726 18.1283 92.7546 18.1283Z" fill="#101828"/>
<path d="M111.728 21.9083L108.839 17.7233L106.409 21.9083H101.414L106.382 14.2133L101.279 6.84225H106.463L109.352 11.0003L111.782 6.84225H116.777L111.728 14.4293L116.912 21.9083H111.728Z" fill="#101828"/>
</svg>
