<svg width="39" height="44" viewBox="0 0 39 44" fill="none" xmlns="http://www.w3.org/2000/svg">
<path fill-rule="evenodd" clip-rule="evenodd" d="M19.9657 1.449C19.4606 1.34513 18.9398 1.34513 18.4347 1.449C17.8509 1.56907 17.3291 1.86133 16.9143 2.09368L16.8012 2.15684L2.74173 9.96767C2.70286 9.98926 2.6628 10.0113 2.62176 10.0339C2.18263 10.2758 1.63048 10.5799 1.20646 11.04C0.83987 11.4378 0.562441 11.9093 0.392731 12.423C0.196435 13.0171 0.198732 13.6475 0.200558 14.1488C0.200729 14.1957 0.200896 14.2414 0.200896 14.2858V29.7078C0.200896 29.7522 0.200729 29.798 0.200558 29.8448C0.198732 30.3462 0.196435 30.9765 0.392731 31.5706C0.562443 32.0843 0.839872 32.5558 1.20646 32.9536C1.63048 33.4137 2.18263 33.7178 2.62176 33.9597C2.66281 33.9823 2.70286 34.0044 2.74173 34.026L16.8012 41.8368L16.9143 41.8999C17.3291 42.1323 17.8509 42.4246 18.4347 42.5446C18.9398 42.6485 19.4606 42.6485 19.9657 42.5446C20.5495 42.4245 21.0713 42.1323 21.4861 41.8999L21.5992 41.8368L35.6587 34.026C35.6758 34.0164 35.6933 34.0068 35.7109 33.997C35.7331 33.9848 35.7557 33.9723 35.7786 33.9597C36.2178 33.7178 36.7699 33.4137 37.1939 32.9536C37.5605 32.5558 37.838 32.0843 38.0077 31.5706C38.204 30.9765 38.2017 30.3462 38.1998 29.8448C38.1997 29.798 38.1995 29.7522 38.1995 29.7078V14.2858C38.1995 14.2414 38.1997 14.1957 38.1998 14.1488C38.2017 13.6475 38.204 13.0171 38.0077 12.423C37.838 11.9093 37.5605 11.4378 37.1939 11.04C36.7699 10.5799 36.2178 10.2758 35.7786 10.0339L35.7771 10.0331C35.7366 10.0108 35.697 9.98898 35.6587 9.96766L21.5992 2.15684L21.4861 2.09367C21.0713 1.86132 20.5495 1.56906 19.9657 1.449ZM18.6466 5.47852C18.9345 5.31856 19.0815 5.23774 19.1911 5.18486L19.2002 5.18051L19.2093 5.18486C19.3189 5.23774 19.4659 5.31856 19.7538 5.47852L32.3873 12.4971L19.2001 19.8233L6.01304 12.4972L18.6466 5.47852ZM4.00076 15.7261L17.3002 23.1147L17.3003 37.7671L4.5871 30.7043C4.2832 30.5354 4.12804 30.4483 4.01919 30.379L4.00999 30.3731L4.00931 30.3622C4.00155 30.2334 4.00076 30.0554 4.00076 29.7078V15.7261Z" fill="#101828"/>
</svg>
