<svg width="45" height="44" viewBox="0 0 45 44" fill="none" xmlns="http://www.w3.org/2000/svg">
<path d="M36.7067 9.16381C36.2744 8.73159 35.8422 8.29937 35.41 7.86715C34.1133 6.48405 32.7302 5.10094 31.0014 4.2365C29.0131 3.19918 26.8521 3.4585 24.691 3.4585C21.4061 3.4585 13.1939 3.4585 8.35303 3.4585L11.6379 7.86715C17.6025 7.86715 26.9385 7.86715 31.2607 7.86715C33.076 7.86715 34.632 8.21293 36.1016 9.16381C36.3609 9.25025 36.6202 9.25025 36.7067 9.16381Z" fill="#66C61C"/>
<path d="M40.3371 16.2497C39.9049 15.8175 39.4727 15.3853 39.0405 14.9531C37.7438 13.57 36.3607 12.1869 34.6318 11.3224C32.6436 10.2851 30.4825 10.5444 28.3214 10.5444C25.4688 10.5444 18.6397 10.5444 13.7988 10.5444L17.0837 14.9531C22.9619 14.9531 31.0012 14.9531 34.9776 14.9531C36.7929 14.9531 38.3489 15.2989 39.8185 16.2497C39.9914 16.3362 40.1643 16.3362 40.3371 16.2497Z" fill="#4CA30D"/>
<path d="M44.3999 23.1677C43.9676 22.7355 43.5354 22.3033 43.1032 21.8711C41.8065 20.488 40.4234 19.1048 38.6946 18.2404C36.7064 17.2031 34.5453 17.4624 32.3842 17.4624C29.7044 17.4624 23.8262 17.4624 19.0718 17.4624L22.3566 21.8711C28.0619 21.8711 35.3233 21.8711 38.9539 21.8711C40.7692 21.8711 42.3252 22.2168 43.7948 23.1677C44.0541 23.2542 44.227 23.3406 44.3999 23.1677Z" fill="#3B7C0F"/>
<path d="M8.00684 34.8383C8.43906 35.2705 8.87128 35.7027 9.3035 36.1349C10.6002 37.518 11.9833 38.9011 13.7121 39.7656C15.7003 40.8029 17.8614 40.5436 20.0225 40.5436H36.3605L33.0756 36.1349C27.111 36.1349 17.775 36.1349 13.4528 36.1349C11.6375 36.1349 10.0815 35.7892 8.61194 34.8383C8.35261 34.7518 8.17972 34.7518 8.00684 34.8383Z" fill="#66C61C"/>
<path d="M4.37646 27.7484C4.80868 28.1806 5.24091 28.6129 5.67313 29.0451C6.96979 30.4282 8.35288 31.8113 10.0818 32.6757C12.07 33.7131 14.2311 33.4537 16.3922 33.4537H30.9148L27.6299 29.0451C21.7517 29.0451 13.7124 29.0451 9.73599 29.0451C7.92067 29.0451 6.36467 28.6993 4.89512 27.7484C4.72223 27.662 4.54935 27.662 4.37646 27.7484Z" fill="#4CA30D"/>
<path d="M0.399902 20.7445C0.832122 21.1767 1.26434 21.609 1.69656 22.0412C2.99322 23.4243 4.37633 24.8074 6.10521 25.6718C8.09343 26.7092 10.2545 26.4498 12.4156 26.4498H25.728L22.4431 22.0412C16.7378 22.0412 9.47653 22.0412 5.84588 22.0412C4.03055 22.0412 2.47456 21.6954 1.00501 20.7445C0.745676 20.6581 0.57279 20.6581 0.399902 20.7445Z" fill="#3B7C0F"/>
</svg>
