<svg width="115" height="23" viewBox="0 0 115 23" fill="none" xmlns="http://www.w3.org/2000/svg">
<path d="M0.379883 21.9083V18.4283H3.13988V4.38828H0.379883V0.908281H11.1799C12.4599 0.908281 13.5699 1.12828 14.5099 1.56828C15.4699 1.98828 16.2099 2.59828 16.7299 3.39828C17.2699 4.17828 17.5399 5.11828 17.5399 6.21828V6.51828C17.5399 7.47828 17.3599 8.26828 16.9999 8.88828C16.6399 9.48828 16.2099 9.95828 15.7099 10.2983C15.2299 10.6183 14.7699 10.8483 14.3299 10.9883V11.5283C14.7699 11.6483 15.2499 11.8783 15.7699 12.2183C16.2899 12.5383 16.7299 13.0083 17.0899 13.6283C17.4699 14.2483 17.6599 15.0583 17.6599 16.0583V16.3583C17.6599 17.5183 17.3899 18.5183 16.8499 19.3583C16.3099 20.1783 15.5599 20.8083 14.5999 21.2483C13.6599 21.6883 12.5599 21.9083 11.2999 21.9083H0.379883ZM7.09988 18.3083H10.8199C11.6799 18.3083 12.3699 18.0983 12.8899 17.6783C13.4299 17.2583 13.6999 16.6583 13.6999 15.8783V15.5783C13.6999 14.7983 13.4399 14.1983 12.9199 13.7783C12.3999 13.3583 11.6999 13.1483 10.8199 13.1483H7.09988V18.3083ZM7.09988 9.54828H10.7599C11.5799 9.54828 12.2499 9.33828 12.7699 8.91828C13.3099 8.49828 13.5799 7.91828 13.5799 7.17828V6.87828C13.5799 6.11828 13.3199 5.53828 12.7999 5.13828C12.2799 4.71828 11.5999 4.50828 10.7599 4.50828H7.09988V9.54828Z" fill="#101828"/>
<path d="M26.6018 22.3283C25.1218 22.3283 23.7918 22.0283 22.6118 21.4283C21.4318 20.8283 20.5018 19.9583 19.8218 18.8183C19.1418 17.6783 18.8018 16.3083 18.8018 14.7083V14.2283C18.8018 12.6283 19.1418 11.2583 19.8218 10.1183C20.5018 8.97828 21.4318 8.10828 22.6118 7.50828C23.7918 6.90828 25.1218 6.60828 26.6018 6.60828C28.0818 6.60828 29.4118 6.90828 30.5918 7.50828C31.7718 8.10828 32.7018 8.97828 33.3818 10.1183C34.0618 11.2583 34.4018 12.6283 34.4018 14.2283V14.7083C34.4018 16.3083 34.0618 17.6783 33.3818 18.8183C32.7018 19.9583 31.7718 20.8283 30.5918 21.4283C29.4118 22.0283 28.0818 22.3283 26.6018 22.3283ZM26.6018 18.9683C27.7618 18.9683 28.7218 18.5983 29.4818 17.8583C30.2418 17.0983 30.6218 16.0183 30.6218 14.6183V14.3183C30.6218 12.9183 30.2418 11.8483 29.4818 11.1083C28.7418 10.3483 27.7818 9.96828 26.6018 9.96828C25.4418 9.96828 24.4818 10.3483 23.7218 11.1083C22.9618 11.8483 22.5818 12.9183 22.5818 14.3183V14.6183C22.5818 16.0183 22.9618 17.0983 23.7218 17.8583C24.4818 18.5983 25.4418 18.9683 26.6018 18.9683Z" fill="#101828"/>
<path d="M36.3909 21.9083V0.908281H40.1709V21.9083H36.3909Z" fill="#101828"/>
<path d="M48.5596 21.9083C47.5796 21.9083 46.7796 21.6083 46.1596 21.0083C45.5597 20.3883 45.2596 19.5683 45.2596 18.5483V10.1483H41.5396V7.02828H45.2596V2.40828H49.0396V7.02828H53.1196V10.1483H49.0396V17.8883C49.0396 18.4883 49.3196 18.7883 49.8796 18.7883H52.7596V21.9083H48.5596Z" fill="#101828"/>
<path d="M61.2213 22.3283C59.2813 22.3283 57.6913 21.9083 56.4513 21.0683C55.2113 20.2283 54.4613 19.0283 54.2013 17.4683L57.6813 16.5683C57.8213 17.2683 58.0513 17.8183 58.3713 18.2183C58.7113 18.6183 59.1213 18.9083 59.6013 19.0883C60.1013 19.2483 60.6413 19.3283 61.2213 19.3283C62.1013 19.3283 62.7513 19.1783 63.1713 18.8783C63.5913 18.5583 63.8013 18.1683 63.8013 17.7083C63.8013 17.2483 63.6013 16.8983 63.2013 16.6583C62.8013 16.3983 62.1613 16.1883 61.2813 16.0283L60.4413 15.8783C59.4013 15.6783 58.4513 15.4083 57.5913 15.0683C56.7313 14.7083 56.0413 14.2183 55.5213 13.5983C55.0013 12.9783 54.7413 12.1783 54.7413 11.1983C54.7413 9.71828 55.2813 8.58828 56.3613 7.80828C57.4413 7.00828 58.8613 6.60828 60.6213 6.60828C62.2813 6.60828 63.6613 6.97828 64.7613 7.71828C65.8613 8.45828 66.5813 9.42828 66.9213 10.6283L63.4113 11.7083C63.2513 10.9483 62.9213 10.4083 62.4213 10.0883C61.9413 9.76828 61.3413 9.60828 60.6213 9.60828C59.9013 9.60828 59.3513 9.73828 58.9713 9.99828C58.5913 10.2383 58.4013 10.5783 58.4013 11.0183C58.4013 11.4983 58.6013 11.8583 59.0013 12.0983C59.4013 12.3183 59.9413 12.4883 60.6213 12.6083L61.4613 12.7583C62.5813 12.9583 63.5913 13.2283 64.4913 13.5683C65.4113 13.8883 66.1313 14.3583 66.6513 14.9783C67.1913 15.5783 67.4613 16.3983 67.4613 17.4383C67.4613 18.9983 66.8913 20.2083 65.7513 21.0683C64.6313 21.9083 63.1213 22.3283 61.2213 22.3283Z" fill="#101828"/>
<path d="M69.2737 21.9083V0.908281H73.0537V8.85828H73.5937C73.7537 8.53828 74.0037 8.21828 74.3437 7.89828C74.6837 7.57828 75.1337 7.31828 75.6937 7.11828C76.2737 6.89828 77.0037 6.78828 77.8837 6.78828C79.0437 6.78828 80.0537 7.05828 80.9137 7.59828C81.7937 8.11828 82.4737 8.84828 82.9537 9.78828C83.4337 10.7083 83.6737 11.7883 83.6737 13.0283V21.9083H79.8937V13.3283C79.8937 12.2083 79.6137 11.3683 79.0537 10.8083C78.5137 10.2483 77.7337 9.96828 76.7137 9.96828C75.5537 9.96828 74.6537 10.3583 74.0137 11.1383C73.3737 11.8983 73.0537 12.9683 73.0537 14.3483V21.9083H69.2737Z" fill="#101828"/>
<path d="M86.26 21.9083V7.02828H90.04V21.9083H86.26ZM88.15 5.28828C87.47 5.28828 86.89 5.06828 86.41 4.62828C85.95 4.18828 85.72 3.60828 85.72 2.88828C85.72 2.16828 85.95 1.58828 86.41 1.14828C86.89 0.708281 87.47 0.488281 88.15 0.488281C88.85 0.488281 89.43 0.708281 89.89 1.14828C90.35 1.58828 90.58 2.16828 90.58 2.88828C90.58 3.60828 90.35 4.18828 89.89 4.62828C89.43 5.06828 88.85 5.28828 88.15 5.28828Z" fill="#101828"/>
<path d="M95.1888 21.9083V10.1483H91.4088V7.02828H95.1888V4.26828C95.1888 3.24828 95.4888 2.43828 96.0888 1.83828C96.7088 1.21828 97.5088 0.908281 98.4888 0.908281H102.389V4.02828H99.8088C99.2488 4.02828 98.9688 4.32828 98.9688 4.92828V7.02828H102.869V10.1483H98.9688V21.9083H95.1888Z" fill="#101828"/>
<path d="M109.702 21.9083C108.722 21.9083 107.922 21.6083 107.302 21.0083C106.702 20.3883 106.402 19.5683 106.402 18.5483V10.1483H102.682V7.02828H106.402V2.40828H110.182V7.02828H114.262V10.1483H110.182V17.8883C110.182 18.4883 110.462 18.7883 111.022 18.7883H113.902V21.9083H109.702Z" fill="#101828"/>
</svg>
