<svg width="128" height="23" viewBox="0 0 128 23" fill="none" xmlns="http://www.w3.org/2000/svg">
<path d="M14.5201 0.910156V16.1202L4.77012 0.910156H0.870117V21.9102H4.77012V6.82016L14.5201 21.9102H18.4201V0.910156H14.5201Z" fill="#101828"/>
<path d="M20.1775 4.84016H24.1975V0.910156H20.1775V4.84016ZM20.2375 21.9102V6.91016H24.1375V21.9102H20.2375Z" fill="#101828"/>
<path d="M40.9175 14.4102C40.9175 9.22016 37.2275 6.76016 33.3275 6.73016C29.3975 6.70016 25.7675 9.22016 25.7675 14.4102C25.7675 19.6002 29.3975 22.1202 33.3275 22.0902C36.8975 22.0602 39.3575 20.4102 40.4975 17.6802L37.4675 16.4202C36.5375 18.2802 35.0675 18.9402 33.3275 18.9702C31.8275 19.0002 30.1175 18.2802 29.7575 15.6102H40.8275C40.8875 15.2202 40.9175 14.8302 40.9175 14.4102ZM33.3275 9.82016C34.8275 9.85016 36.3575 10.6602 36.8375 12.8202H29.8175C30.3275 10.6302 31.8575 9.79016 33.3275 9.82016Z" fill="#101828"/>
<path d="M49.9307 9.70016V6.73016H47.4707V2.71016L43.5707 3.91016V6.73016H41.1107V9.70016H43.5707V17.4702C43.5707 20.4102 43.8107 21.9102 48.3707 21.9102H49.4207V18.4902H48.3707C47.6507 18.4902 47.4707 18.3702 47.4707 17.4702V9.70016H49.9307Z" fill="#101828"/>
<path d="M55.7258 18.6402L64.0058 10.1802V6.91016H51.5858V10.1802H59.6258L51.3458 18.6402V21.9102H64.0958V18.6402H55.7258Z" fill="#101828"/>
<path d="M65.4941 17.6802L69.4241 17.0802C69.6941 18.5802 71.4641 19.1502 72.5441 19.1502C73.6541 19.1502 75.5741 18.9102 75.5741 17.1102C75.5741 13.6002 65.9441 17.9802 65.9441 11.2602C65.9441 6.94016 70.9541 6.70016 72.5441 6.70016C74.0441 6.70016 78.3941 6.94016 79.2941 10.4202L75.5741 11.2002C75.2441 9.61016 73.5641 9.31016 72.6641 9.31016C71.7641 9.31016 69.8441 9.52016 69.8441 11.2602C69.8441 14.7402 79.4741 10.3002 79.4741 17.1102C79.4741 21.7002 74.1941 22.0902 72.5441 22.0902C71.0441 22.0902 66.2741 21.7002 65.4941 17.6802Z" fill="#101828"/>
<path d="M84.5406 14.4102C84.5406 18.0702 86.4906 19.1802 88.5306 19.1502C90.3606 19.1202 91.6206 18.3702 92.3706 16.2702L95.5806 17.8302C94.4106 20.8902 91.5606 22.0602 88.5306 22.0902C84.6006 22.1202 80.6406 19.6002 80.6406 14.4102C80.6406 9.22016 84.6006 6.70016 88.5306 6.73016C91.5606 6.76016 94.4106 7.93016 95.5806 10.9902L92.3706 12.5502C91.6206 10.4502 90.3606 9.70016 88.5306 9.67016C86.4906 9.64016 84.5406 10.7502 84.5406 14.4102Z" fill="#101828"/>
<path d="M106.05 6.67016C104.04 6.67016 102.21 7.72016 101.04 9.97016V0.910156H97.1404V21.9102H101.04V16.6002C101.04 9.73016 103.89 9.16016 104.94 9.16016C106.62 9.16016 106.86 10.9002 106.86 13.4502V21.9102H110.76V13.4502C110.76 10.2702 110.25 6.67016 106.05 6.67016Z" fill="#101828"/>
<path d="M127.226 14.4102C127.226 9.22016 123.536 6.76016 119.636 6.73016C115.706 6.70016 112.076 9.22016 112.076 14.4102C112.076 19.6002 115.706 22.1202 119.636 22.0902C123.206 22.0602 125.666 20.4102 126.806 17.6802L123.776 16.4202C122.846 18.2802 121.376 18.9402 119.636 18.9702C118.136 19.0002 116.426 18.2802 116.066 15.6102H127.136C127.196 15.2202 127.226 14.8302 127.226 14.4102ZM119.636 9.82016C121.136 9.85016 122.666 10.6602 123.146 12.8202H116.126C116.636 10.6302 118.166 9.79016 119.636 9.82016Z" fill="#101828"/>
</svg>
