<svg width="590" height="489" viewBox="0 0 590 489" fill="none" xmlns="http://www.w3.org/2000/svg">
<path d="M131.335 395.679C150.444 416.251 168.839 435.919 194.583 448.938C224.864 464.25 306.561 495.58 339.076 487.77C423.298 467.54 500.434 393.135 527.482 317.027C540.207 281.222 554.151 245.368 573.144 212.092C593.669 176.132 594.151 138.173 581.577 99.0543C575.173 79.1318 557.872 65.1168 541.057 53.4045C522.793 40.6824 505.693 29.1997 484.906 20.4022C463.032 11.145 438.047 2.84413 414.047 1.03558C386.212 -1.062 357.323 0.643621 329.409 0.837965C230.489 1.52666 117.582 8.33387 37.9543 71.3877C24.4894 82.05 1.60355 103.221 0.416976 120.891C-0.453334 133.852 0.0606509 147.087 1.75392 159.921C7.06117 200.147 19.8283 233.305 40.6282 268.611C52.0341 287.971 60.9549 308.86 74.3604 327.106C91.9287 351.018 111.05 373.842 131.335 395.679Z" fill="#1AA5BB"/>
</svg>
