<svg width="2394" height="1313" viewBox="0 0 2394 1313" fill="none" xmlns="http://www.w3.org/2000/svg">
<g filter="url(#filter0_f_115_7335)">
<path d="M754.827 815.099C806.454 836.681 856.15 857.314 925.703 870.971C1007.51 887.035 1228.23 919.903 1316.08 911.709C1543.62 890.486 1752.02 812.43 1825.1 732.587C1859.48 695.025 1897.15 657.411 1948.46 622.501C2003.91 584.776 2005.22 544.955 1971.24 503.916C1953.94 483.016 1907.2 468.313 1861.77 456.026C1812.43 442.679 1766.23 430.633 1710.07 421.404C1650.97 411.692 1583.47 402.984 1518.63 401.086C1443.43 398.886 1365.38 400.675 1289.96 400.879C1022.71 401.602 717.671 408.743 502.541 474.891C466.163 486.077 404.332 508.287 401.127 526.824C398.775 540.421 400.164 554.306 404.739 567.77C419.077 609.97 453.57 644.756 509.765 681.794C540.58 702.105 564.682 724.018 600.899 743.16C648.363 768.246 700.024 792.19 754.827 815.099Z" fill="#1AA5BB" fill-opacity="0.1"/>
</g>
<defs>
<filter id="filter0_f_115_7335" x="0" y="0" width="2394" height="1313" filterUnits="userSpaceOnUse" color-interpolation-filters="sRGB">
<feFlood flood-opacity="0" result="BackgroundImageFix"/>
<feBlend mode="normal" in="SourceGraphic" in2="BackgroundImageFix" result="shape"/>
<feGaussianBlur stdDeviation="200" result="effect1_foregroundBlur_115_7335"/>
</filter>
</defs>
</svg>
