<svg width="1419" height="1313" viewBox="0 0 1419 1313" fill="none" xmlns="http://www.w3.org/2000/svg">
<g filter="url(#filter0_f_115_7344)">
<path d="M537.79 815.099C557.839 836.681 577.137 857.314 604.147 870.971C635.917 887.035 721.629 919.903 755.742 911.709C844.105 890.486 925.031 812.43 953.409 732.587C966.76 695.025 981.389 657.411 1001.32 622.501C1022.85 584.776 1023.36 544.955 1010.16 503.916C1003.44 483.016 985.292 468.313 967.652 456.026C948.49 442.679 930.55 430.633 908.74 421.404C885.791 411.692 859.579 402.984 834.399 401.086C805.195 398.886 774.886 400.675 745.6 400.879C641.818 401.602 523.362 408.743 439.82 474.891C425.693 486.077 401.682 508.287 400.437 526.824C399.524 540.421 400.064 554.306 401.84 567.77C407.408 609.97 420.803 644.756 442.625 681.794C454.592 702.105 463.951 724.018 478.015 743.16C496.447 768.246 516.509 792.19 537.79 815.099Z" fill="#1AA5BB" fill-opacity="0.1"/>
</g>
<defs>
<filter id="filter0_f_115_7344" x="0" y="0" width="1419" height="1313" filterUnits="userSpaceOnUse" color-interpolation-filters="sRGB">
<feFlood flood-opacity="0" result="BackgroundImageFix"/>
<feBlend mode="normal" in="SourceGraphic" in2="BackgroundImageFix" result="shape"/>
<feGaussianBlur stdDeviation="200" result="effect1_foregroundBlur_115_7344"/>
</filter>
</defs>
</svg>
