<svg width="457" height="242" viewBox="0 0 457 242" fill="none" xmlns="http://www.w3.org/2000/svg">
<path d="M101.729 195.817C116.53 205.998 130.778 215.731 150.719 222.174C174.174 229.752 237.455 245.256 262.64 241.391C327.877 231.38 387.624 194.558 408.575 156.893C418.432 139.173 429.232 121.43 443.944 104.962C459.842 87.1655 460.215 68.3803 450.476 49.0207C445.516 39.1613 432.114 32.2255 419.09 26.4292C404.943 20.1332 391.698 14.4506 375.596 10.0968C358.653 5.51553 339.301 1.40752 320.711 0.512497C299.15 -0.525571 276.774 0.31852 255.152 0.414698C178.531 0.755527 91.0763 4.12433 29.3985 35.3289C18.9689 40.6055 1.24207 51.0825 0.32298 59.8275C-0.351141 66.2417 0.0469787 72.7913 1.35855 79.1428C5.46941 99.0504 15.3585 115.46 31.4696 132.932C40.3044 142.513 47.2142 152.851 57.5978 161.881C71.2058 173.715 86.0168 185.01 101.729 195.817Z" fill="#1AA5BB"/>
</svg>
