<?xml version="1.0" encoding="UTF-8" standalone="no"?>
<!DOCTYPE svg PUBLIC "-//W3C//DTD SVG 1.1//EN" "http://www.w3.org/Graphics/SVG/1.1/DTD/svg11.dtd">
<svg width="100%" height="100%" viewBox="0 0 3500 1466" version="1.1" xmlns="http://www.w3.org/2000/svg" xmlns:xlink="http://www.w3.org/1999/xlink" xml:space="preserve" xmlns:serif="http://www.serif.com/" style="fill-rule:evenodd;clip-rule:evenodd;stroke-linejoin:round;stroke-miterlimit:2;">
    <g transform="matrix(2.38752,0,0,2.38752,-2017.2,199.594)">
        <path d="M962.586,79.089L1075.95,79.089L1075.95,98.214L982.353,98.214L982.353,159.441L1075.14,159.441L1075.14,178.566L982.353,178.566L982.353,255.332L1075.14,255.332L1075.14,274.457L962.586,274.457L962.586,79.089Z" style="fill-rule:nonzero;"/>
    </g>
    <g transform="matrix(2.38752,0,0,2.38752,-2024.2,199.594)">
        <path d="M1089.66,238.066L1106.47,228.105C1118.31,249.621 1131.98,260.378 1147.49,260.378C1154.12,260.378 1160.35,258.851 1166.18,255.796C1172.01,252.742 1176.44,248.647 1179.49,243.511C1182.54,238.376 1184.06,232.931 1184.06,227.175C1184.06,220.623 1181.82,214.204 1177.34,207.918C1171.15,199.24 1159.86,188.793 1143.45,176.574C1126.96,164.267 1116.69,155.368 1112.66,149.878C1105.66,140.67 1102.17,130.709 1102.17,119.996C1102.17,111.496 1104.23,103.748 1108.35,96.753C1112.48,89.759 1118.28,84.247 1125.77,80.218C1133.25,76.19 1141.39,74.175 1150.17,74.175C1159.5,74.175 1168.22,76.455 1176.33,81.015C1184.44,85.575 1193.03,93.964 1202.08,106.183L1185.94,118.269C1178.5,108.53 1172.16,102.11 1166.92,99.011C1161.67,95.912 1155.96,94.363 1149.77,94.363C1141.79,94.363 1135.27,96.753 1130.21,101.535C1125.14,106.316 1122.61,112.204 1122.61,119.199C1122.61,123.449 1123.51,127.566 1125.3,131.55C1127.09,135.535 1130.36,139.873 1135.11,144.566C1137.71,147.045 1146.23,153.553 1160.66,164.089C1177.79,176.574 1189.53,187.686 1195.9,197.425C1202.26,207.165 1205.44,216.949 1205.44,226.777C1205.44,240.944 1200,253.251 1189.11,263.699C1178.21,274.147 1164.97,279.371 1149.37,279.371C1137.36,279.371 1126.46,276.205 1116.69,269.875C1106.92,263.544 1097.91,252.941 1089.66,238.066Z" style="fill-rule:nonzero;"/>
    </g>
    <g transform="matrix(2.38752,0,0,2.38752,-2031.2,199.594)">
        <path d="M1226.83,238.066L1243.63,228.105C1255.47,249.621 1269.14,260.378 1284.65,260.378C1291.28,260.378 1297.51,258.851 1303.34,255.796C1309.17,252.742 1313.6,248.647 1316.65,243.511C1319.7,238.376 1321.23,232.931 1321.23,227.175C1321.23,220.623 1318.98,214.204 1314.5,207.918C1308.32,199.24 1297.02,188.793 1280.61,176.574C1264.12,164.267 1253.85,155.368 1249.82,149.878C1242.83,140.67 1239.33,130.709 1239.33,119.996C1239.33,111.496 1241.39,103.748 1245.52,96.753C1249.64,89.759 1255.44,84.247 1262.93,80.218C1270.42,76.19 1278.55,74.175 1287.34,74.175C1296.66,74.175 1305.38,76.455 1313.49,81.015C1321.61,85.575 1330.19,93.964 1339.24,106.183L1323.11,118.269C1315.67,108.53 1309.32,102.11 1304.08,99.011C1298.84,95.912 1293.12,94.363 1286.93,94.363C1278.95,94.363 1272.43,96.753 1267.37,101.535C1262.3,106.316 1259.77,112.204 1259.77,119.199C1259.77,123.449 1260.67,127.566 1262.46,131.55C1264.25,135.535 1267.53,139.873 1272.28,144.566C1274.88,147.045 1283.39,153.553 1297.83,164.089C1314.95,176.574 1326.69,187.686 1333.06,197.425C1339.42,207.165 1342.61,216.949 1342.61,226.777C1342.61,240.944 1337.16,253.251 1326.27,263.699C1315.38,274.147 1302.13,279.371 1286.53,279.371C1274.52,279.371 1263.62,276.205 1253.85,269.875C1244.08,263.544 1235.07,252.941 1226.83,238.066Z" style="fill-rule:nonzero;"/>
    </g>
    <g transform="matrix(2.38752,0,0,2.38752,-2036.2,199.594)">
        <path d="M1384.56,79.089L1497.92,79.089L1497.92,98.214L1404.33,98.214L1404.33,159.441L1497.12,159.441L1497.12,178.566L1404.33,178.566L1404.33,255.332L1497.12,255.332L1497.12,274.457L1384.56,274.457L1384.56,79.089Z" style="fill-rule:nonzero;"/>
    </g>
    <path d="M1862.72,657.4L1940.58,745.974L1940.58,388.422L1987.14,388.422L1987.14,854.865L1976.54,854.865L1841.03,701.327L1862.72,657.4ZM1756.94,537.067L1741.54,588.615L1664.8,501.663L1664.8,854.865L1616,854.865L1616,388.422L1626.27,388.422L1756.94,537.067Z" style="fill-rule:nonzero;"/>
    <g transform="matrix(2.38752,0,0,2.38752,-2047.2,199.594)">
        <path d="M1716.17,98.214L1716.17,79.089L1824.56,79.089L1824.56,98.214L1780.45,98.214L1780.45,274.457L1760.28,274.457L1760.28,98.214L1716.17,98.214Z" style="fill-rule:nonzero;"/>
    </g>
    <g transform="matrix(2.38752,0,0,2.38752,-2049.2,199.594)">
        <rect x="1850.24" y="79.089" width="19.767" height="195.367"/>
    </g>
    <g transform="matrix(2.38752,0,0,2.38752,-2056.2,199.594)">
        <path d="M1996.14,79.089L2088.39,274.457L2067.04,274.457L2035.93,210.175L1950.71,210.175L1919.9,274.457L1897.84,274.457L1991.3,79.089L1996.14,79.089ZM1993.65,120.597L1959.75,191.316L2027.38,191.316L1993.65,120.597Z" style="fill-rule:nonzero;"/>
    </g>
    <g transform="matrix(2.38752,0,0,2.38752,-2059.53,199.594)">
        <path d="M2119.05,79.089L2138.82,79.089L2138.82,255.597L2214.93,255.597L2214.93,274.457L2119.05,274.457L2119.05,79.089Z" style="fill-rule:nonzero;"/>
    </g>
    <g transform="matrix(22.0538,0,-7.33173,21.2929,-10939.8,-19539.6)">
        <path d="M868.821,970.105C868.775,970.514 868.551,970.719 868.151,970.719C867.643,970.719 867.388,970.343 867.388,969.593C867.388,968.377 867.452,967.338 867.58,966.476C867.681,965.804 867.732,965.145 867.732,964.497C867.732,964.343 867.78,964.212 867.877,964.107C867.975,964.002 868.11,963.949 868.285,963.949C868.868,963.949 869.159,964.311 869.159,965.034C869.159,965.268 869.056,965.866 868.85,966.827C868.726,967.4 868.664,967.815 868.664,968.073C869.775,965.578 870.777,964.331 871.67,964.331C872.031,964.331 872.321,964.478 872.541,964.772C872.76,965.066 872.874,965.717 872.882,966.726C872.885,967.648 872.932,968.109 873.021,968.109C873.091,968.109 873.334,967.662 873.75,966.768C874.212,965.779 874.607,965.125 874.935,964.807C875.263,964.49 875.608,964.331 875.969,964.331C876.4,964.331 876.713,964.52 876.907,964.9C877.101,965.279 877.237,965.92 877.315,966.822C877.373,967.537 877.452,968.077 877.551,968.442C877.65,968.808 877.82,969.05 878.06,969.169C878.255,969.265 878.352,969.408 878.352,969.598C878.352,969.769 878.241,969.941 878.02,970.114C877.798,970.287 877.573,970.373 877.344,970.373C876.948,970.373 876.638,970.174 876.415,969.774C876.191,969.375 876.041,968.574 875.963,967.37C875.92,966.79 875.875,966.405 875.826,966.217C875.778,966.028 875.705,965.934 875.608,965.934C875.522,965.934 875.398,966.076 875.235,966.36C875.072,966.644 874.79,967.209 874.39,968.055C874.037,968.818 873.733,969.35 873.479,969.652C873.224,969.954 872.951,970.105 872.66,970.105C872.435,970.105 872.209,970.006 871.982,969.807C871.754,969.608 871.631,968.887 871.612,967.644C871.592,966.535 871.522,965.981 871.402,965.981C871.239,965.981 870.847,966.474 870.225,967.459C869.604,968.444 869.136,969.326 868.821,970.105Z" style="fill:rgb(187,151,26);fill-rule:nonzero;"/>
    </g>
    <g transform="matrix(22.0538,0,-7.33173,21.2929,-10944.8,-19539.6)">
        <path d="M884.428,968.407C884.428,968.82 884.088,969.313 883.408,969.888C882.729,970.462 881.961,970.749 881.107,970.749C880.451,970.749 879.934,970.537 879.558,970.114C879.181,969.691 878.992,969.102 878.992,968.347C878.992,967.235 879.377,966.192 880.146,965.219C880.915,964.245 881.736,963.759 882.61,963.759C883.045,963.759 883.395,963.9 883.659,964.182C883.923,964.464 884.055,964.799 884.055,965.189C884.055,965.88 883.73,966.538 883.082,967.164C882.433,967.79 881.602,968.222 880.589,968.46C880.472,968.488 880.414,968.56 880.414,968.675C880.414,968.866 880.496,969.047 880.661,969.22C880.827,969.393 881.047,969.479 881.323,969.479C882.103,969.479 882.878,969.068 883.647,968.246C883.795,968.087 883.938,968.007 884.078,968.007C884.311,968.007 884.428,968.14 884.428,968.407ZM880.519,967.352C881.132,967.225 881.673,966.957 882.141,966.547C882.609,966.138 882.843,965.767 882.843,965.433C882.843,965.302 882.807,965.192 882.735,965.102C882.663,965.013 882.571,964.968 882.459,964.968C882.121,964.968 881.746,965.222 881.334,965.731C880.923,966.24 880.651,966.78 880.519,967.352Z" style="fill:rgb(187,151,26);fill-rule:nonzero;"/>
    </g>
    <g transform="matrix(22.0538,0,-7.33173,21.2929,-10944.8,-19539.6)">
        <path d="M889.513,968.466C888.507,969.924 887.496,970.653 886.478,970.653C886.067,970.653 885.734,970.487 885.482,970.156C885.23,969.824 885.103,969.402 885.103,968.889C885.103,967.852 885.518,966.822 886.347,965.797C887.176,964.772 888.016,964.259 888.867,964.259C889.356,964.259 889.704,964.39 889.909,964.652C890.201,963.349 890.373,962.535 890.428,962.209C890.544,961.605 890.641,961.204 890.719,961.005C890.797,960.807 890.915,960.653 891.074,960.544C891.234,960.434 891.372,960.38 891.488,960.38C891.686,960.38 891.838,960.463 891.942,960.63C892.047,960.797 892.1,961.007 892.1,961.262C892.1,961.373 892.014,961.693 891.843,962.221C891.564,963.079 891.305,964.116 891.066,965.332C890.827,966.547 890.707,967.515 890.707,968.234C890.707,968.921 890.855,969.265 891.15,969.265C891.302,969.265 891.463,969.223 891.634,969.14C891.805,969.06 891.925,969.02 891.995,969.02C892.185,969.02 892.28,969.134 892.28,969.36C892.28,969.634 892.087,969.907 891.701,970.18C891.314,970.452 890.948,970.588 890.603,970.588C890.23,970.588 889.942,970.383 889.74,969.974C889.538,969.565 889.463,969.062 889.513,968.466ZM888.867,965.409C888.358,965.409 887.827,965.806 887.273,966.601C886.72,967.396 886.443,968.123 886.443,968.782C886.443,969.167 886.583,969.36 886.863,969.36C887.336,969.36 887.902,968.929 888.558,968.067C889.214,967.205 889.542,966.524 889.542,966.023C889.542,965.872 889.48,965.732 889.356,965.603C889.232,965.474 889.069,965.409 888.867,965.409Z" style="fill:rgb(187,151,26);fill-rule:nonzero;"/>
    </g>
    <g transform="matrix(19.8841,0,-6.61043,19.1981,-9600.39,-17333.6)">
        <path d="M907.818,968.46C906.796,969.839 905.81,970.528 904.858,970.528C904.509,970.528 904.208,970.387 903.955,970.105C903.703,969.823 903.577,969.463 903.577,969.026C903.577,967.974 904.035,966.852 904.951,965.662C905.868,964.473 906.792,963.878 907.724,963.878C908.198,963.878 908.509,964.122 908.656,964.611C909.103,964.611 909.326,964.785 909.326,965.135C909.326,965.302 909.284,965.604 909.198,966.041C909.043,966.859 908.965,967.513 908.965,968.001C908.965,968.51 908.999,968.867 909.067,969.074C909.135,969.281 909.185,969.416 909.216,969.479C909.247,969.543 909.34,969.61 909.495,969.682C909.651,969.757 909.728,969.863 909.728,969.998C909.728,970.2 909.628,970.369 909.428,970.504C909.228,970.639 909.02,970.707 908.802,970.707C908.072,970.707 907.744,969.958 907.818,968.46ZM907.468,965.153C907.076,965.153 906.566,965.597 905.939,966.485C905.312,967.373 904.998,968.127 904.998,968.746C904.998,969.072 905.064,969.235 905.196,969.235C905.654,969.235 906.218,968.819 906.888,967.987C907.558,967.154 907.893,966.426 907.893,965.803C907.893,965.604 907.85,965.446 907.762,965.329C907.675,965.212 907.577,965.153 907.468,965.153Z" style="fill:rgb(187,151,26);fill-rule:nonzero;"/>
    </g>
    <g transform="matrix(19.8841,0,-6.61043,19.1981,-9600.39,-17333.6)">
        <path d="M916.02,968.407C916.02,968.82 915.68,969.313 915,969.888C914.321,970.462 913.554,970.749 912.699,970.749C912.043,970.749 911.526,970.537 911.15,970.114C910.773,969.691 910.585,969.102 910.585,968.347C910.585,967.235 910.969,966.192 911.738,965.219C912.507,964.245 913.328,963.759 914.202,963.759C914.637,963.759 914.987,963.9 915.251,964.182C915.515,964.464 915.647,964.799 915.647,965.189C915.647,965.88 915.323,966.538 914.674,967.164C914.026,967.79 913.194,968.222 912.181,968.46C912.064,968.488 912.006,968.56 912.006,968.675C912.006,968.866 912.089,969.047 912.254,969.22C912.419,969.393 912.639,969.479 912.915,969.479C913.695,969.479 914.47,969.068 915.239,968.246C915.387,968.087 915.53,968.007 915.67,968.007C915.903,968.007 916.02,968.14 916.02,968.407ZM912.111,967.352C912.725,967.225 913.265,966.957 913.733,966.547C914.201,966.138 914.435,965.767 914.435,965.433C914.435,965.302 914.399,965.192 914.328,965.102C914.256,965.013 914.163,964.968 914.051,964.968C913.713,964.968 913.338,965.222 912.927,965.731C912.515,966.24 912.243,966.78 912.111,967.352Z" style="fill:rgb(187,151,26);fill-rule:nonzero;"/>
    </g>
    <g transform="matrix(19.8841,0,-6.61043,19.1981,-9600.39,-17333.6)">
        <path d="M919.731,968.943C919.715,968.728 919.381,968.466 918.729,968.156C917.929,967.763 917.418,967.424 917.197,967.14C916.975,966.856 916.865,966.547 916.865,966.214C916.865,965.511 917.25,964.896 918.021,964.369C918.792,963.843 919.511,963.58 920.179,963.58C920.836,963.58 921.164,963.872 921.164,964.456C921.164,964.611 921.089,964.75 920.939,964.873C920.79,964.996 920.663,965.058 920.558,965.058C920.515,965.058 920.439,965.03 920.331,964.974C920.222,964.919 920.138,964.891 920.08,964.891C919.735,964.891 919.354,965.01 918.938,965.248C918.523,965.487 918.315,965.765 918.315,966.083C918.315,966.238 918.389,966.387 918.536,966.533C918.684,966.678 918.985,966.859 919.439,967.078C920.111,967.404 920.554,967.698 920.768,967.96C920.981,968.222 921.088,968.512 921.088,968.83C921.088,969.41 920.704,969.893 919.937,970.281C919.17,970.668 918.309,970.862 917.354,970.862C916.651,970.862 916.299,970.602 916.299,970.081C916.299,969.89 916.373,969.728 916.521,969.593C916.668,969.457 916.833,969.39 917.016,969.39C917.09,969.39 917.204,969.418 917.36,969.473C917.515,969.533 917.659,969.563 917.791,969.563C918.156,969.563 918.538,969.503 918.938,969.384C919.338,969.265 919.602,969.118 919.731,968.943Z" style="fill:rgb(187,151,26);fill-rule:nonzero;"/>
    </g>
    <g transform="matrix(19.8841,0,-6.61043,19.1981,-9600.39,-17333.6)">
        <path d="M924.403,965.618C924.368,965.618 924.258,966.061 924.074,966.947C923.889,967.833 923.797,968.369 923.797,968.556C923.797,968.881 923.831,969.109 923.899,969.238C923.967,969.367 924.078,969.432 924.234,969.432C924.451,969.432 924.66,969.393 924.86,969.315C925.06,969.238 925.323,969.064 925.649,968.794C925.851,968.623 926.022,968.538 926.162,968.538C926.275,968.538 926.365,968.571 926.433,968.636C926.501,968.702 926.535,968.778 926.535,968.866C926.535,969.215 926.259,969.611 925.708,970.054C925.156,970.497 924.574,970.719 923.96,970.719C923.447,970.719 923.056,970.564 922.786,970.254C922.516,969.944 922.381,969.499 922.381,968.919C922.381,968.383 922.577,967.312 922.97,965.707C922.721,965.735 922.548,965.749 922.451,965.749L922.329,965.749C922.15,965.749 921.969,965.689 921.784,965.57C921.6,965.451 921.507,965.26 921.507,964.998C921.507,964.664 921.692,964.497 922.061,964.497L923.307,964.45C923.471,963.969 923.643,963.339 923.826,962.561C923.935,962.076 924.181,961.834 924.566,961.834C924.779,961.834 924.946,961.9 925.067,962.033C925.187,962.166 925.247,962.314 925.247,962.477C925.247,962.541 925.082,963.155 924.752,964.319C925.987,964.207 926.665,964.152 926.785,964.152C926.991,964.152 927.127,964.183 927.193,964.244C927.259,964.306 927.292,964.424 927.292,964.599C927.292,964.952 926.999,965.177 926.412,965.272L924.403,965.618Z" style="fill:rgb(187,151,26);fill-rule:nonzero;"/>
    </g>
    <g transform="matrix(19.8841,0,-6.61043,19.1981,-9600.39,-17333.6)">
        <path d="M928.917,967.709C929.562,966.474 930.118,965.633 930.586,965.186C931.054,964.739 931.527,964.515 932.005,964.515C932.335,964.515 932.61,964.632 932.829,964.864C933.049,965.096 933.209,965.701 933.31,966.679C933.353,967.143 933.407,967.519 933.473,967.805C933.539,968.091 933.613,968.344 933.694,968.565C933.776,968.785 933.892,968.993 934.044,969.187C934.16,969.342 934.219,969.491 934.219,969.634C934.219,969.777 934.152,969.908 934.018,970.028C933.884,970.147 933.729,970.206 933.554,970.206C933.209,970.206 932.902,970.014 932.634,969.628C932.366,969.243 932.207,968.711 932.156,968.031C932.094,967.201 932.027,966.671 931.955,966.44C931.884,966.21 931.764,966.095 931.597,966.095C931.372,966.095 930.934,966.554 930.283,967.474C929.633,968.394 929.164,969.13 928.877,969.682C928.698,970.099 928.56,970.369 928.463,970.492C928.366,970.616 928.246,970.677 928.102,970.677C927.865,970.677 927.673,970.617 927.525,970.498C927.378,970.379 927.304,970.21 927.304,969.992C927.304,969.885 927.356,969.549 927.461,968.985C927.857,966.851 928.181,964.581 928.434,962.173C928.496,961.593 928.615,961.193 928.792,960.973C928.969,960.752 929.131,960.642 929.279,960.642C929.484,960.642 929.663,960.723 929.815,960.886C929.966,961.049 930.042,961.276 930.042,961.566C930.042,962.011 929.989,962.523 929.884,963.103C929.78,963.683 929.583,964.609 929.296,965.88C929.121,966.647 928.995,967.257 928.917,967.709Z" style="fill:rgb(187,151,26);fill-rule:nonzero;"/>
    </g>
    <g transform="matrix(19.8841,0,-6.61043,19.1981,-9600.39,-17333.6)">
        <path d="M940.254,968.407C940.254,968.82 939.914,969.313 939.234,969.888C938.555,970.462 937.788,970.749 936.933,970.749C936.277,970.749 935.76,970.537 935.384,970.114C935.007,969.691 934.819,969.102 934.819,968.347C934.819,967.235 935.203,966.192 935.972,965.219C936.741,964.245 937.562,963.759 938.436,963.759C938.871,963.759 939.221,963.9 939.485,964.182C939.749,964.464 939.881,964.799 939.881,965.189C939.881,965.88 939.557,966.538 938.908,967.164C938.259,967.79 937.428,968.222 936.415,968.46C936.298,968.488 936.24,968.56 936.24,968.675C936.24,968.866 936.323,969.047 936.488,969.22C936.653,969.393 936.873,969.479 937.149,969.479C937.929,969.479 938.704,969.068 939.473,968.246C939.621,968.087 939.764,968.007 939.904,968.007C940.137,968.007 940.254,968.14 940.254,968.407ZM936.345,967.352C936.958,967.225 937.499,966.957 937.967,966.547C938.435,966.138 938.669,965.767 938.669,965.433C938.669,965.302 938.633,965.192 938.561,965.102C938.49,965.013 938.397,964.968 938.285,964.968C937.947,964.968 937.572,965.222 937.16,965.731C936.749,966.24 936.477,966.78 936.345,967.352Z" style="fill:rgb(187,151,26);fill-rule:nonzero;"/>
    </g>
    <g transform="matrix(19.8841,0,-6.61043,19.1981,-9600.39,-17333.6)">
        <path d="M943.598,965.618C943.563,965.618 943.453,966.061 943.268,966.947C943.084,967.833 942.992,968.369 942.992,968.556C942.992,968.881 943.026,969.109 943.094,969.238C943.162,969.367 943.273,969.432 943.429,969.432C943.646,969.432 943.855,969.393 944.055,969.315C944.255,969.238 944.518,969.064 944.844,968.794C945.046,968.623 945.217,968.538 945.357,968.538C945.469,968.538 945.56,968.571 945.628,968.636C945.696,968.702 945.73,968.778 945.73,968.866C945.73,969.215 945.454,969.611 944.902,970.054C944.351,970.497 943.768,970.719 943.155,970.719C942.642,970.719 942.251,970.564 941.981,970.254C941.711,969.944 941.576,969.499 941.576,968.919C941.576,968.383 941.772,967.312 942.164,965.707C941.916,965.735 941.743,965.749 941.646,965.749L941.524,965.749C941.345,965.749 941.163,965.689 940.979,965.57C940.795,965.451 940.702,965.26 940.702,964.998C940.702,964.664 940.887,964.497 941.256,964.497L942.502,964.45C942.665,963.969 942.838,963.339 943.021,962.561C943.13,962.076 943.376,961.834 943.761,961.834C943.974,961.834 944.141,961.9 944.262,962.033C944.382,962.166 944.442,962.314 944.442,962.477C944.442,962.541 944.277,963.155 943.947,964.319C945.182,964.207 945.86,964.152 945.98,964.152C946.186,964.152 946.322,964.183 946.388,964.244C946.454,964.306 946.487,964.424 946.487,964.599C946.487,964.952 946.194,965.177 945.607,965.272L943.598,965.618Z" style="fill:rgb(187,151,26);fill-rule:nonzero;"/>
    </g>
    <g transform="matrix(19.8841,0,-6.61043,19.1981,-9600.39,-17333.6)">
        <path d="M950.017,961.601C950.017,961.883 949.893,962.131 949.644,962.343C949.396,962.556 949.18,962.662 948.998,962.662C948.765,962.662 948.558,962.563 948.377,962.364C948.197,962.165 948.106,961.967 948.106,961.768C948.106,961.482 948.196,961.251 948.374,961.074C948.553,960.897 948.809,960.809 949.143,960.809C949.404,960.809 949.614,960.887 949.775,961.044C949.937,961.201 950.017,961.387 950.017,961.601ZM947.204,966.5L947.204,966.506C947.328,965.783 947.39,965.369 947.39,965.266C947.39,964.972 947.453,964.726 947.579,964.527C947.705,964.329 947.881,964.229 948.106,964.229C948.371,964.229 948.576,964.293 948.724,964.42C948.872,964.547 948.945,964.69 948.945,964.849C948.945,965.008 948.873,965.336 948.73,965.832L948.695,965.963C948.481,966.73 948.353,967.356 948.31,967.841C948.268,968.325 948.246,968.717 948.246,969.014C948.246,969.257 948.287,969.581 948.369,969.986C948.38,970.057 948.386,970.117 948.386,970.165C948.386,970.256 948.302,970.379 948.133,970.534C947.964,970.689 947.782,970.766 947.588,970.766C947.075,970.766 946.819,970.369 946.819,969.575C946.819,968.899 946.912,968.077 947.099,967.108C947.137,966.893 947.172,966.69 947.204,966.5Z" style="fill:rgb(187,151,26);fill-rule:nonzero;"/>
    </g>
    <g transform="matrix(19.8841,0,-6.61043,19.1981,-9600.39,-17333.6)">
        <path d="M951.934,970.784C951.293,970.784 950.806,970.606 950.472,970.248C950.138,969.89 949.971,969.394 949.971,968.758C949.971,967.757 950.369,966.675 951.165,965.511C951.961,964.346 952.742,963.764 953.507,963.764C953.876,963.764 954.19,963.952 954.45,964.328C954.711,964.703 954.841,965.093 954.841,965.499C954.841,965.88 954.772,966.137 954.634,966.27C954.496,966.403 954.363,966.47 954.235,966.47C953.858,966.47 953.639,966.204 953.577,965.671C953.53,965.282 953.435,965.087 953.291,965.087C952.988,965.087 952.588,965.528 952.091,966.41C951.594,967.292 951.345,968.065 951.345,968.728C951.345,969.265 951.629,969.533 952.196,969.533C952.821,969.533 953.452,969.306 954.089,968.854C954.388,968.635 954.625,968.526 954.8,968.526C955.014,968.526 955.12,968.635 955.12,968.854C955.12,969.159 954.778,969.558 954.092,970.048C953.407,970.539 952.687,970.784 951.934,970.784Z" style="fill:rgb(187,151,26);fill-rule:nonzero;"/>
    </g>
    <g transform="matrix(19.8841,0,-6.61043,19.1981,-9600.39,-17333.6)">
        <path d="M958.983,968.943C958.967,968.728 958.633,968.466 957.981,968.156C957.181,967.763 956.67,967.424 956.449,967.14C956.227,966.856 956.116,966.547 956.116,966.214C956.116,965.511 956.502,964.896 957.273,964.369C958.044,963.843 958.763,963.58 959.431,963.58C960.087,963.58 960.416,963.872 960.416,964.456C960.416,964.611 960.341,964.75 960.191,964.873C960.042,964.996 959.915,965.058 959.81,965.058C959.767,965.058 959.691,965.03 959.583,964.974C959.474,964.919 959.39,964.891 959.332,964.891C958.986,964.891 958.606,965.01 958.19,965.248C957.775,965.487 957.567,965.765 957.567,966.083C957.567,966.238 957.641,966.387 957.788,966.533C957.936,966.678 958.237,966.859 958.691,967.078C959.363,967.404 959.806,967.698 960.02,967.96C960.233,968.222 960.34,968.512 960.34,968.83C960.34,969.41 959.956,969.893 959.189,970.281C958.422,970.668 957.561,970.862 956.606,970.862C955.903,970.862 955.551,970.602 955.551,970.081C955.551,969.89 955.625,969.728 955.773,969.593C955.92,969.457 956.085,969.39 956.268,969.39C956.342,969.39 956.456,969.418 956.612,969.473C956.767,969.533 956.911,969.563 957.043,969.563C957.408,969.563 957.79,969.503 958.19,969.384C958.59,969.265 958.854,969.118 958.983,968.943Z" style="fill:rgb(187,151,26);fill-rule:nonzero;"/>
    </g>
    <path d="M1751,137C1751,137 1939.03,348.99 1890.38,528.127C1846.87,688.314 1764.83,727.728 1776.38,970.64C1784.02,1131.34 1890.38,1329 1890.38,1329C1752.38,1133 1700.38,916.127 1708.38,786.127C1716.38,656.127 1799.31,533.903 1806.38,422.127C1816.38,264.127 1751,137 1751,137Z" style="fill:rgb(187,151,26);fill-rule:nonzero;"/>
    <g transform="matrix(0.406557,0,-0.0938612,0.406557,1306.35,573.923)">
        <path d="M1818.22,1342.46C1787.54,1342.46 1764.2,1334.01 1748.21,1317.11C1732.22,1300.2 1724.23,1276.73 1724.23,1246.68C1724.23,1199.35 1743.29,1148.18 1781.4,1093.15C1819.52,1038.12 1856.89,1010.61 1893.52,1010.61C1911.18,1010.61 1926.24,1019.48 1938.7,1037.23C1951.15,1054.98 1957.38,1073.43 1957.38,1092.59C1957.38,1110.62 1954.08,1122.78 1947.48,1129.07C1940.88,1135.36 1934.51,1138.5 1928.38,1138.5C1910.34,1138.5 1899.84,1125.92 1896.86,1100.76C1894.63,1082.35 1890.08,1073.15 1883.2,1073.15C1868.69,1073.15 1849.54,1093.99 1825.75,1135.69C1801.95,1177.38 1790.05,1213.91 1790.05,1245.27C1790.05,1270.62 1803.62,1283.3 1830.77,1283.3C1860.7,1283.3 1890.91,1272.6 1921.4,1251.19C1935.72,1240.86 1947.06,1235.69 1955.43,1235.69C1965.66,1235.69 1970.77,1240.86 1970.77,1251.19C1970.77,1265.65 1954.36,1284.48 1921.54,1307.67C1888.73,1330.86 1854.29,1342.46 1818.22,1342.46Z" style="fill:rgb(187,151,26);fill-rule:nonzero;"/>
    </g>
    <g transform="matrix(0.406557,0,-0.0938612,0.406557,1306.35,573.923)">
        <path d="M2126.39,850.034C2146.47,850.034 2156.51,861.115 2156.51,883.276C2156.51,893.417 2155.12,904.357 2152.33,916.095C2149.54,927.833 2141.91,956.896 2129.46,1003.28C2120.35,1036.9 2113.42,1073.57 2108.68,1113.29C2103.94,1153.01 2101.57,1184.05 2101.57,1206.4C2101.57,1230.25 2103.34,1258.61 2106.87,1291.47C2107.8,1300.3 2108.26,1305.84 2108.26,1308.09C2108.26,1319.36 2104.17,1329.03 2095.99,1337.11C2087.81,1345.18 2078.89,1349.22 2069.22,1349.22C2056.02,1349.22 2046.72,1342.93 2041.33,1330.35C2035.94,1317.77 2033.24,1296.17 2033.24,1265.56C2033.24,1199.63 2040.91,1121.98 2056.25,1032.58C2071.59,943.186 2084.14,890.412 2093.9,874.261C2103.66,858.11 2114.49,850.034 2126.39,850.034Z" style="fill:rgb(187,151,26);fill-rule:nonzero;"/>
    </g>
    <g transform="matrix(0.406557,0,-0.0938612,0.406557,1306.35,573.923)">
        <path d="M2341.14,908.348C2341.14,921.682 2335.19,933.373 2323.29,943.421C2311.39,953.468 2301.07,958.492 2292.33,958.492C2281.18,958.492 2271.27,953.797 2262.63,944.407C2253.98,935.016 2249.66,925.626 2249.66,916.236C2249.66,902.714 2253.94,891.774 2262.49,883.417C2271.04,875.059 2283.31,870.881 2299.3,870.881C2311.76,870.881 2321.85,874.59 2329.56,882.008C2337.28,889.426 2341.14,898.206 2341.14,908.348ZM2206.43,1139.91L2206.43,1140.19C2212.38,1106.01 2215.36,1086.48 2215.36,1081.6C2215.36,1067.7 2218.38,1056.06 2224.42,1046.67C2230.46,1037.28 2238.88,1032.58 2249.66,1032.58C2262.3,1032.58 2272.16,1035.59 2279.22,1041.6C2286.29,1047.61 2289.82,1054.37 2289.82,1061.88C2289.82,1069.39 2286.38,1084.88 2279.5,1108.36L2277.83,1114.56C2267.6,1150.81 2261.47,1180.38 2259.42,1203.3C2257.38,1226.21 2256.35,1244.71 2256.35,1258.79C2256.35,1270.25 2258.31,1285.56 2262.21,1304.71C2262.77,1308.09 2263.05,1310.91 2263.05,1313.16C2263.05,1317.48 2259,1323.31 2250.91,1330.63C2242.83,1337.95 2234.14,1341.62 2224.84,1341.62C2200.3,1341.62 2188.03,1322.84 2188.03,1285.27C2188.03,1253.35 2192.49,1214.47 2201.41,1168.65C2203.27,1158.51 2204.95,1148.93 2206.43,1139.91Z" style="fill:rgb(187,151,26);fill-rule:nonzero;"/>
    </g>
    <g transform="matrix(0.406557,0,-0.0938612,0.406557,1306.35,573.923)">
        <path d="M2584.89,1285.84C2575.96,1268.93 2569.46,1237.38 2565.37,1191.18C2561.28,1143.11 2552.16,1119.07 2538.03,1119.07C2524.65,1119.07 2501.5,1144.09 2468.59,1194.14C2435.68,1244.19 2415.41,1281.14 2407.79,1304.99C2406.12,1312.13 2403,1318.05 2398.45,1322.74C2393.89,1327.44 2389.39,1329.78 2384.92,1329.78C2356.66,1329.78 2342.53,1316.73 2342.53,1290.63C2342.53,1281.8 2345.32,1261.7 2350.9,1230.34C2358.15,1189.78 2361.78,1140.19 2361.78,1081.6C2361.78,1072.77 2365.59,1063.34 2373.21,1053.29C2380.83,1043.24 2388.92,1038.22 2397.47,1038.22C2408.26,1038.22 2416.53,1040.94 2422.29,1046.38C2428.06,1051.83 2430.94,1066.29 2430.94,1089.77C2430.94,1107.61 2425.64,1142.17 2415.04,1193.44C2455.39,1098.03 2500.38,1050.33 2550.03,1050.33C2593.16,1050.33 2618.45,1084.6 2625.89,1153.15C2633.32,1223.02 2641.88,1257.95 2651.54,1257.95C2655.82,1257.95 2660.75,1257.01 2666.32,1255.13C2673.02,1252.88 2678.32,1251.75 2682.22,1251.75C2691.15,1251.75 2695.61,1257.01 2695.61,1267.53C2695.61,1277.11 2689.47,1287.29 2677.2,1298.09C2664.93,1308.89 2649.5,1314.29 2630.91,1314.29C2609.34,1314.29 2593.91,1304.81 2584.61,1285.84L2584.89,1285.84Z" style="fill:rgb(187,151,26);fill-rule:nonzero;"/>
    </g>
    <g transform="matrix(0.406557,0,-0.0938612,0.406557,1306.35,573.923)">
        <path d="M2882.74,908.348C2882.74,921.682 2876.8,933.373 2864.89,943.421C2853,953.468 2842.68,958.492 2833.94,958.492C2822.78,958.492 2812.88,953.797 2804.24,944.407C2795.59,935.016 2791.27,925.626 2791.27,916.236C2791.27,902.714 2795.54,891.774 2804.1,883.417C2812.65,875.059 2824.92,870.881 2840.91,870.881C2853.37,870.881 2863.45,874.59 2871.17,882.008C2878.89,889.426 2882.74,898.206 2882.74,908.348ZM2748.04,1139.91L2748.04,1140.19C2753.99,1106.01 2756.96,1086.48 2756.96,1081.6C2756.96,1067.7 2759.99,1056.06 2766.03,1046.67C2772.07,1037.28 2780.48,1032.58 2791.27,1032.58C2803.91,1032.58 2813.76,1035.59 2820.83,1041.6C2827.9,1047.61 2831.43,1054.37 2831.43,1061.88C2831.43,1069.39 2827.99,1084.88 2821.11,1108.36L2819.44,1114.56C2809.21,1150.81 2803.07,1180.38 2801.03,1203.3C2798.98,1226.21 2797.96,1244.71 2797.96,1258.79C2797.96,1270.25 2799.91,1285.56 2803.82,1304.71C2804.38,1308.09 2804.66,1310.91 2804.66,1313.16C2804.66,1317.48 2800.61,1323.31 2792.52,1330.63C2784.43,1337.95 2775.74,1341.62 2766.45,1341.62C2741.9,1341.62 2729.63,1322.84 2729.63,1285.27C2729.63,1253.35 2734.1,1214.47 2743.02,1168.65C2744.88,1158.51 2746.55,1148.93 2748.04,1139.91Z" style="fill:rgb(187,151,26);fill-rule:nonzero;"/>
    </g>
    <g transform="matrix(0.406557,0,-0.0938612,0.406557,1306.35,573.923)">
        <path d="M2974.5,1342.46C2943.82,1342.46 2920.49,1334.01 2904.5,1317.11C2888.51,1300.2 2880.51,1276.73 2880.51,1246.68C2880.51,1199.35 2899.57,1148.18 2937.69,1093.15C2975.8,1038.12 3013.17,1010.61 3049.8,1010.61C3067.46,1010.61 3082.52,1019.48 3094.98,1037.23C3107.44,1054.98 3113.67,1073.43 3113.67,1092.59C3113.67,1110.62 3110.37,1122.78 3103.77,1129.07C3097.17,1135.36 3090.8,1138.5 3084.66,1138.5C3066.63,1138.5 3056.12,1125.92 3053.15,1100.76C3050.92,1082.35 3046.36,1073.15 3039.48,1073.15C3024.98,1073.15 3005.83,1093.99 2982.03,1135.69C2958.23,1177.38 2946.33,1213.91 2946.33,1245.27C2946.33,1270.62 2959.9,1283.3 2987.05,1283.3C3016.98,1283.3 3047.2,1272.6 3077.69,1251.19C3092.01,1240.86 3103.35,1235.69 3111.71,1235.69C3121.94,1235.69 3127.05,1240.86 3127.05,1251.19C3127.05,1265.65 3110.64,1284.48 3077.83,1307.67C3045.01,1330.86 3010.57,1342.46 2974.5,1342.46Z" style="fill:rgb(187,151,26);fill-rule:nonzero;"/>
    </g>
    <g transform="matrix(0.369946,0,-0.0719101,0.369946,1400.84,622.541)">
        <path d="M3719.98,1255.98C3739.5,1269.87 3759.39,1276.82 3779.66,1276.82C3786.91,1276.82 3795.74,1274.85 3806.16,1270.91C3807.83,1270.34 3809.78,1270.06 3812.01,1270.06C3823.17,1270.06 3828.74,1277.57 3828.74,1292.6C3828.74,1301.05 3823.21,1311.05 3812.15,1322.6C3801.09,1334.15 3787.28,1339.93 3770.74,1339.93C3735.04,1339.93 3700.64,1327.34 3667.55,1302.18C3626.27,1332.04 3582.39,1346.97 3535.91,1346.97C3502.63,1346.97 3475.72,1337.25 3455.17,1317.81C3434.62,1298.37 3424.35,1272.97 3424.35,1241.61C3424.35,1191.65 3454.75,1147.24 3515.55,1108.36C3519.83,1105.73 3521.96,1102.44 3521.96,1098.5C3521.96,1096.06 3521.13,1092.49 3519.45,1087.8C3510.34,1062.82 3505.79,1039.25 3505.79,1017.09C3505.79,984.409 3515.41,957.365 3534.65,935.955C3553.9,914.545 3578.3,903.84 3607.86,903.84C3632.03,903.84 3651.23,912.855 3665.45,930.884C3679.68,948.914 3686.79,969.572 3686.79,992.86C3686.79,1031.92 3662.34,1070.42 3613.44,1108.36C3607.49,1112.87 3604.52,1117.47 3604.52,1122.16C3604.52,1131.93 3614.37,1149.68 3634.08,1175.41C3653.79,1201.14 3668.66,1217.76 3678.7,1225.27C3701.01,1201.23 3715.24,1177.85 3721.37,1155.12L3711.05,1154C3694.13,1152.68 3682.74,1148.97 3676.89,1142.87C3671.03,1136.77 3668.1,1128.55 3668.1,1118.22C3668.1,1111.08 3671.08,1104.65 3677.03,1098.92C3682.98,1093.2 3688.83,1090.33 3694.6,1090.33C3699.25,1090.33 3708.17,1092.3 3721.37,1096.25C3734.57,1100.38 3748.98,1102.44 3764.6,1102.44C3779.1,1102.44 3793.98,1101.51 3809.22,1099.63C3824.28,1097.75 3834.42,1096.81 3839.62,1096.81C3854.12,1096.81 3861.38,1102.73 3861.38,1114.56C3861.38,1136.53 3846.59,1148.64 3817.03,1150.9C3806.25,1151.84 3798.9,1153.2 3795,1154.98C3791.1,1156.77 3787.84,1160.19 3785.24,1165.27C3765.34,1203.58 3743.59,1233.82 3719.98,1255.98ZM3580.53,1070.61C3610.84,1046.2 3625.99,1020.84 3625.99,994.551C3625.99,984.785 3623.62,976.287 3618.88,969.056C3614.14,961.825 3608.42,958.21 3601.73,958.21C3593.17,958.21 3585.6,963.375 3579,973.704C3572.4,984.034 3569.1,996.241 3569.1,1010.33C3569.1,1031.55 3572.91,1051.64 3580.53,1070.61ZM3625.99,1263.58C3596.43,1233.16 3570.21,1197.01 3547.34,1155.12C3512.2,1179.54 3494.63,1207.52 3494.63,1239.07C3494.63,1254.47 3500.03,1266.49 3510.81,1275.13C3521.59,1283.77 3536.37,1288.09 3555.15,1288.09C3578.95,1288.09 3602.56,1279.92 3625.99,1263.58Z" style="fill:rgb(187,151,26);fill-rule:nonzero;"/>
    </g>
</svg>
